<svg width="272" height="230" viewBox="0 0 272 230" fill="none" xmlns="http://www.w3.org/2000/svg">
<g clip-path="url(#clip0_1223_4231)">
<rect x="0.334961" width="230" height="230" rx="115" fill="#444444"/>
<circle cx="196.335" cy="36" r="25" fill="#FFCC00"/>
<path d="M241.488 93.697L236.921 96.3314V115.008L232.36 112.374V75.4867L225.513 71.5379L218.672 75.4867V86.0242L211.824 82.0754L207.263 84.7098V59.5512L198.136 54.2825L193.575 56.9169V66.2635L186.728 70.2179V78.121L179.881 74.1723L173.039 78.121V86.0242L166.192 82.0754V35.3082L159.345 31.3595L152.503 35.3082V54.6925L147.937 57.3269V47.0871L141.095 43.1383L134.248 47.0871V63.9325L127.406 59.9837L122.84 62.6181V70.5212L115.998 66.5669V34.9544L109.151 31L102.304 34.9544V55.7261L93.1765 50.4573L86.335 54.4117V107.105L248.335 200.634V97.6514L241.488 93.697Z" fill="#F0F0F0"/>
<path d="M114.178 35.2163L110.739 37.2002V51.2652L107.305 49.2813V21.5023L102.148 18.5286L96.9959 21.5023V29.438L91.8394 26.4642L88.4046 28.4481V9.50154L81.5307 5.53372L78.0958 7.51763V14.5565L72.9393 17.5345V23.4862L67.7829 20.5125L62.6306 23.4862V29.438L57.4741 26.4642V-8.75552L52.3177 -11.7293L47.1654 -8.75552V5.84252L43.7263 7.82643V0.114975L38.5741 -2.85878L33.4176 0.114975V12.801L28.2654 9.82726L24.8263 11.8112V17.7629L19.6741 14.7849V-9.02202L14.5176 -12L9.3611 -9.02202V6.62086L2.48721 2.65303L-2.66504 5.63101V45.3135L119.335 115.749V38.1942L114.178 35.2163Z" fill="#F0F0F0"/>
<path d="M-83.4639 -2.36041L-83.9639 -1.49438L350.677 249.446L351.177 248.58L-83.4639 -2.36041Z" fill="#E0E0E0"/>
<path d="M229.075 237.29L265.625 216.18L261.555 213.83L225.045 234.96L229.075 237.29Z" fill="#E0E0E0"/>
<path d="M216.884 230.25L253.435 209.14L249.375 206.8L212.854 227.93L216.884 230.25Z" fill="#E0E0E0"/>
<path d="M204.695 223.21L241.245 202.11L237.185 199.76L200.675 220.89L204.695 223.21Z" fill="#E0E0E0"/>
<path d="M192.514 216.18L229.064 195.07L225.004 192.73L188.484 213.86L192.514 216.18Z" fill="#E0E0E0"/>
<path d="M180.325 209.14L216.875 188.04L212.815 185.69L176.295 206.82L180.325 209.14Z" fill="#E0E0E0"/>
<path d="M168.135 202.11L204.685 181L200.625 178.65L164.115 199.78L168.135 202.11Z" fill="#E0E0E0"/>
<path d="M155.955 195.07L192.505 173.96L188.445 171.62L151.925 192.75L155.955 195.07Z" fill="#E0E0E0"/>
<path d="M143.764 188.04L180.314 166.93L176.254 164.58L139.734 185.71L143.764 188.04Z" fill="#E0E0E0"/>
<path d="M131.575 181L168.125 159.89L164.065 157.55L127.555 178.68L131.575 181Z" fill="#E0E0E0"/>
<path d="M119.395 173.96L155.945 152.86L151.885 150.51L115.365 171.64L119.395 173.96Z" fill="#E0E0E0"/>
<path d="M107.205 166.93L143.755 145.82L139.695 143.48L103.175 164.61L107.205 166.93Z" fill="#E0E0E0"/>
<path d="M95.0151 159.89L131.565 138.79L127.505 136.44L90.9951 157.57L95.0151 159.89Z" fill="#E0E0E0"/>
<path d="M82.8347 152.86L119.385 131.75L115.325 129.4L78.8047 150.53L82.8347 152.86Z" fill="#E0E0E0"/>
<path d="M70.6452 145.82L107.195 124.71L103.135 122.37L66.6152 143.5L70.6452 145.82Z" fill="#E0E0E0"/>
<path d="M58.4546 138.79L95.0046 117.68L90.9446 115.33L54.4346 136.46L58.4546 138.79Z" fill="#E0E0E0"/>
<path d="M46.2751 131.75L82.8251 110.64L78.7651 108.3L42.2451 129.43L46.2751 131.75Z" fill="#E0E0E0"/>
<path d="M34.0847 124.71L70.6347 103.61L66.5747 101.26L30.0547 122.39L34.0847 124.71Z" fill="#E0E0E0"/>
<path d="M21.895 117.68L58.445 96.57L54.385 94.23L17.875 115.36L21.895 117.68Z" fill="#E0E0E0"/>
<path d="M9.71457 110.64L46.2646 89.5399L42.2046 87.1899L5.68457 108.32L9.71457 110.64Z" fill="#E0E0E0"/>
<path d="M-2.47488 103.61L34.0751 82.4999L30.0151 80.1599L-6.50488 101.28L-2.47488 103.61Z" fill="#E0E0E0"/>
<path d="M-14.6656 96.57L21.8845 75.47L17.8245 73.12L-18.6855 94.25L-14.6656 96.57Z" fill="#E0E0E0"/>
<path d="M-26.845 89.5399L9.70499 68.4299L5.645 66.08L-30.875 87.21L-26.845 89.5399Z" fill="#E0E0E0"/>
<path d="M306.254 281.85L-120.266 35.6L-118.376 34.49L308.154 280.75L306.254 281.85Z" fill="#37474F"/>
<path d="M340.904 261.84L-85.5957 15.6L-83.7057 14.49L342.804 260.74L340.904 261.84Z" fill="#37474F"/>
<path d="M-120.013 51.6015L-120.513 52.4675L314.128 303.408L314.628 302.542L-120.013 51.6015Z" fill="#E0E0E0"/>
<path d="M107.205 336.92V206.14C100.035 196.9 91.7147 189.14 82.8447 184.05C55.9247 168.51 34.0947 182.77 34.0947 215.91V336.91L107.205 336.92Z" fill="#E0E0E0"/>
<path d="M34.5452 336.92V215.92C34.5452 199.57 40.0852 187 49.7252 181.43C58.6452 176.28 70.3352 177.35 82.6252 184.43C109.375 199.87 131.145 239.24 131.145 272.18V336.91H132.035V272.19C132.035 238.97 110.035 199.25 83.0352 183.66C70.4452 176.4 58.4552 175.33 49.2452 180.66C39.1652 186.47 33.6152 198.99 33.6152 215.92V336.92H34.5452Z" fill="#E0E0E0"/>
<path d="M34.555 215.91H33.665V336.92H34.555V215.91Z" fill="#E0E0E0"/>
<path d="M51.7667 38.8833L-11.3301 2.45435L-44.118 21.3989C-44.118 21.3989 -46.6406 49.0857 -46.6406 66.5701L16.4561 102.999L54.3141 81.1404C54.2893 63.656 51.7667 38.8833 51.7667 38.8833Z" fill="#E0E0E0"/>
<path d="M16.5932 94.3561C16.4938 97.3882 16.4317 100.315 16.4317 102.999L-46.665 66.5699C-46.665 63.8857 -46.6029 60.9779 -46.5035 57.9209L16.5932 94.3561Z" fill="#00C418"/>
<path opacity="0.2" d="M16.5932 94.3561C16.4938 97.3882 16.4317 100.315 16.4317 102.999L-46.665 66.5699C-46.665 63.8857 -46.6029 60.9779 -46.5035 57.9209L16.5932 94.3561Z" fill="black"/>
<path d="M18.9543 57.827L51.7671 38.8824C51.7671 38.8824 54.2897 63.6551 54.2897 81.1333L16.4316 102.992C16.4316 85.5137 18.9543 57.827 18.9543 57.827Z" fill="#E0E0E0"/>
<path opacity="0.2" d="M18.9543 57.827L51.7671 38.8824C51.7671 38.8824 54.2897 63.6551 54.2897 81.1333L16.4316 102.992C16.4316 85.5137 18.9543 57.827 18.9543 57.827Z" fill="black"/>
<path d="M18.9541 57.8276V56.3674L51.7669 37.4291V38.883L18.9541 57.8276Z" fill="#00C418"/>
<path d="M18.9541 56.3673L-44.1426 19.9383L-11.3298 1L51.7669 37.429L18.9541 56.3673Z" fill="#00C418"/>
<path opacity="0.3" d="M18.9541 56.3673L-44.1426 19.9383L-11.3298 1L51.7669 37.429L18.9541 56.3673Z" fill="white"/>
<path d="M18.9541 56.3676V57.8277L-44.1426 21.3987V19.9386L18.9541 56.3676Z" fill="#00C418"/>
<path opacity="0.15" d="M18.9541 56.3676V57.8277L-44.1426 21.3987V19.9386L18.9541 56.3676Z" fill="white"/>
<path d="M15.531 58.7727C15.0525 64.3647 14.0025 77.4749 13.5116 89.6656L-43.4463 56.7658C-42.9368 44.4385 -41.8743 31.2164 -41.4207 25.8729L15.531 58.7727Z" fill="#37474F"/>
<path d="M-40.8994 55.3797C-40.4769 45.9167 -39.7562 36.1182 -39.2653 29.998L12.927 60.1329C12.492 65.3645 11.6843 75.3308 11.2183 85.4648L-40.8994 55.3797Z" fill="#455A64"/>
<path d="M-23.9492 44.7109V45.9536L13.9088 67.8122V66.5696L-23.9492 44.7109Z" fill="#37474F"/>
<path d="M29.0512 29.8679L1.28992 13.8374L-6.28418 18.2116V18.7584L21.4771 34.7889L29.0512 30.4147V29.8679Z" fill="#00C418"/>
<path d="M-6.28418 18.2116L21.4771 34.2421L29.0512 29.8679L1.28992 13.8374L-6.28418 18.2116Z" fill="#00C418"/>
<path opacity="0.3" d="M-6.28418 18.2113L21.4771 34.2418L29.0512 29.8675L1.28992 14.0359L-6.28418 18.2113Z" fill="white"/>
<path opacity="0.15" d="M-6.28418 18.2113L21.4771 34.2418V34.7886L-6.28418 18.7581V18.2113Z" fill="black"/>
<path d="M21.4766 34.2424L29.0506 29.8682V30.4149L21.4766 34.7891V34.2424Z" fill="#00C418"/>
<path d="M21.4767 34.2489L-6.28466 18.2184L-13.8525 22.5926V24.0465L13.9088 39.1636L21.4767 34.7956V34.2489Z" fill="#EBEBEB"/>
<path d="M-13.8525 22.5926L13.9088 38.6231L21.4767 34.2489L-6.28466 18.2184L-13.8525 22.5926Z" fill="#00C418"/>
<path opacity="0.6" d="M-13.8525 22.5926L13.9088 38.6231L21.4767 34.2489L-6.28466 18.2184L-13.8525 22.5926Z" fill="white"/>
<path d="M13.9092 38.6215L21.4771 34.2473V34.7941L13.9092 39.1621V38.6215Z" fill="#00C418"/>
<path opacity="0.3" d="M13.9092 38.6215L21.4771 34.2473V34.7941L13.9092 39.1621V38.6215Z" fill="white"/>
<path d="M13.9087 38.6096L-13.8589 22.5853L-21.4268 26.9533V27.5001L6.33456 43.5306L13.9087 39.1564V38.6096Z" fill="#00C418"/>
<path d="M-21.4268 26.9533L6.33456 42.9838L13.9087 38.6096L-13.8589 22.5853L-21.4268 26.9533Z" fill="#00C418"/>
<path opacity="0.3" d="M-21.0352 26.9533L6.33471 42.9838L13.9088 38.6096L-13.8587 22.5853L-21.0352 26.9533Z" fill="white"/>
<path opacity="0.15" d="M-21.4268 26.9532L6.33456 42.9837V43.5305L-21.4268 27.5V26.9532Z" fill="white"/>
<path d="M6.33496 42.9838L13.9091 38.6096V39.1564L6.33496 43.5306V42.9838Z" fill="#00C418"/>
<path d="M13.3873 36.7828L18.327 33.9371C18.6252 33.7631 18.7805 33.5767 18.6749 33.5146C18.4139 33.4935 18.1539 33.5662 17.9417 33.7196L13.0021 36.5653C12.7039 36.7393 12.5485 36.9257 12.6604 36.9878C12.7722 37.05 13.0953 36.9568 13.3873 36.7828Z" fill="#455A64"/>
<path d="M11.2311 35.5399L16.1708 32.6941C16.469 32.5202 16.6243 32.3338 16.5187 32.2716C16.2583 32.247 15.9978 32.3177 15.7855 32.4705L10.8459 35.3224C10.5477 35.4902 10.3923 35.6766 10.498 35.7387C10.7586 35.7662 11.0201 35.6953 11.2311 35.5399Z" fill="#455A64"/>
<path d="M9.07453 34.2917L14.0142 31.4459C14.3124 31.272 14.4677 31.0856 14.3559 31.0234C14.0949 31.0029 13.8351 31.0755 13.6227 31.2285L8.69552 34.0742C8.39728 34.2482 8.24194 34.4346 8.34757 34.4967C8.6065 34.5163 8.86402 34.4437 9.07453 34.2917Z" fill="#455A64"/>
<path d="M6.9187 33.0493L11.8894 30.1974C12.1876 30.0296 12.343 29.8432 12.2311 29.7811C11.9705 29.7542 11.7092 29.825 11.4979 29.9799L6.52725 32.8257C6.23522 32.9996 6.0799 33.186 6.18552 33.2482C6.29115 33.3103 6.62045 33.2171 6.9187 33.0493Z" fill="#455A64"/>
<path d="M4.76313 31.8006L9.73382 28.9549C10.0321 28.7809 10.1812 28.5945 10.0756 28.5323C9.96993 28.4702 9.64061 28.5634 9.34237 28.7374L4.37168 31.5831C4.07344 31.7571 3.92432 31.9435 4.02995 32.0056C4.29091 32.0262 4.5507 31.9535 4.76313 31.8006Z" fill="#455A64"/>
<path d="M2.60644 30.5574L7.57713 27.7055C7.87537 27.5377 8.02449 27.3451 7.91887 27.2892C7.65827 27.2622 7.39697 27.3331 7.18569 27.488L2.215 30.3337C1.91675 30.5077 1.76142 30.6941 1.87326 30.7562C1.9851 30.8184 2.30819 30.7252 2.60644 30.5574Z" fill="#455A64"/>
<path d="M0.451163 29.3081L5.42185 26.4624C5.71388 26.2884 5.86921 26.102 5.76359 26.0399C5.50324 26.0159 5.24295 26.0864 5.03041 26.2387L0.0597177 29.0906C-0.238524 29.2584 -0.393855 29.451 -0.282015 29.5069C-0.0214218 29.5339 0.239884 29.463 0.451163 29.3081Z" fill="#455A64"/>
<path d="M-1.71124 28.0662L3.25945 25.2142C3.55769 25.0465 3.71302 24.8539 3.6074 24.7979C3.34675 24.7704 3.08523 24.8413 2.87422 24.9968L-2.09647 27.8425C-2.39472 28.0165 -2.55005 28.2029 -2.44442 28.265C-2.18402 28.2896 -1.92354 28.2189 -1.71124 28.0662Z" fill="#455A64"/>
<path d="M-3.86749 26.8169L1.1032 23.9711C1.40144 23.7972 1.55678 23.6108 1.44494 23.5486C1.3331 23.4865 1.01 23.5486 0.717974 23.7474L-4.25272 26.5994C-4.55096 26.7671 -4.7063 26.9598 -4.60067 27.0157C-4.34003 27.0432 -4.07851 26.9723 -3.86749 26.8169Z" fill="#455A64"/>
<path d="M59.3347 84.0601C59.2788 69.7072 57.5763 50.6011 57.0047 44.5617L50.7168 40.9269L20.1346 58.5791C19.7804 62.6426 17.8543 85.0977 17.6865 100.83L23.9744 104.459L59.3347 84.0601Z" fill="#37474F"/>
<path d="M20.1348 58.5791L26.4227 62.2139L57.0049 44.5617L50.717 40.9269L20.1348 58.5791Z" fill="#455A64"/>
<path d="M23.9746 104.471C24.1486 88.733 26.0685 66.2779 26.4289 62.2205L57.0049 44.5684C57.5765 50.6078 59.279 69.7139 59.3349 84.0667L23.9746 104.471Z" fill="#263238"/>
</g>
<path d="M24.3652 103.057C24.5264 87.9318 26.3768 66.36 26.717 62.4682L56.0962 45.5104C56.6454 51.3122 58.2809 69.6668 58.3346 83.4551L24.3652 103.057Z" fill="#455A64"/>
<path d="M117.719 78.5308L57.1042 43.5348L25.606 61.7342C25.606 61.7342 23.1826 88.3318 23.1826 105.129L83.7974 140.125L120.166 119.126C120.142 102.329 117.719 78.5308 117.719 78.5308Z" fill="#E0E0E0"/>
<path d="M83.9292 131.821C83.8337 134.734 83.774 137.545 83.774 140.124L23.1592 105.128C23.1592 102.549 23.2189 99.7558 23.3144 96.8191L83.9292 131.821Z" fill="#00C418"/>
<path opacity="0.2" d="M83.9292 131.821C83.8337 134.734 83.774 137.545 83.774 140.124L23.1592 105.128C23.1592 102.549 23.2189 99.7558 23.3144 96.8191L83.9292 131.821Z" fill="black"/>
<path d="M86.1978 96.729L117.72 78.5297C117.72 78.5297 120.143 102.328 120.143 119.119L83.7744 140.117C83.7744 123.327 86.1978 96.729 86.1978 96.729Z" fill="#E0E0E0"/>
<path opacity="0.2" d="M86.1978 96.729L117.72 78.5297C117.72 78.5297 120.143 102.328 120.143 119.119L83.7744 140.117C83.7744 123.327 86.1978 96.729 86.1978 96.729Z" fill="black"/>
<path d="M86.1973 96.7296V95.3269L117.719 77.1335V78.5303L86.1973 96.7296Z" fill="#00C418"/>
<path d="M25.583 61.7336V60.3308L57.1051 42.1375V43.5342L25.583 61.7336Z" fill="#00C418"/>
<path d="M86.1978 95.3269L25.583 60.3308L57.1051 42.1375L117.72 77.1335L86.1978 95.3269Z" fill="#00C418"/>
<path opacity="0.3" d="M86.1978 95.3269L25.583 60.3308L57.1051 42.1375L117.72 77.1335L86.1978 95.3269Z" fill="white"/>
<path d="M86.1978 95.3272V96.7299L25.583 61.7339V60.3312L86.1978 95.3272Z" fill="#00C418"/>
<path opacity="0.15" d="M86.1978 95.3272V96.7299L25.583 61.7339V60.3312L86.1978 95.3272Z" fill="white"/>
<path d="M82.9083 97.6374C82.4487 103.009 81.44 115.604 80.9684 127.315L26.251 95.7094C26.7404 83.867 27.7611 71.165 28.1969 66.0317L82.9083 97.6374Z" fill="#37474F"/>
<path d="M28.6982 94.3782C29.1041 85.2875 29.7965 75.8744 30.2681 69.995L80.4074 98.9445C79.9895 103.97 79.2136 113.545 78.7659 123.28L28.6982 94.3782Z" fill="#455A64"/>
<path d="M41.4541 104.495L44.4983 106.25C44.9818 94.4555 45.9965 81.7774 46.4382 76.5785L43.4 74.8176C42.9583 80.0166 41.9376 92.6887 41.4541 104.495Z" fill="#37474F"/>
<path d="M60.0176 115.215L63.0558 116.97C63.5393 105.17 64.56 92.4976 65.0017 87.2926L61.9635 85.5616C61.5218 90.7367 60.5011 103.409 60.0176 115.215Z" fill="#37474F"/>
<path d="M44.9814 84.129V85.3228L81.3503 106.322V105.128L44.9814 84.129Z" fill="#37474F"/>
<path d="M30.0114 69.4999L29.9696 69.9714C29.5697 75.0033 28.8236 84.8938 28.3998 94.3666C27.9879 102.067 27.9999 103.917 28.0118 105.887C28.0118 106.233 28.0118 106.579 28.0118 106.967V107.134L41.4121 114.894V114.386C41.4121 114.327 41.4957 108.495 41.8598 101.852C42.2776 92.9519 42.9641 83.7 43.4655 77.5043V77.3192L30.0114 69.4999ZM28.6087 105.911C28.6087 103.953 28.6087 102.108 28.9967 94.4203C29.4086 85.2221 30.1189 75.6778 30.5307 70.5444L36.1296 73.7796C35.7536 78.8115 34.9895 88.5468 34.5598 97.93C34.1479 105.636 34.1598 107.48 34.1718 109.45C34.1718 109.635 34.1718 109.826 34.1718 110.017L28.5908 106.794C28.5908 106.454 28.5908 106.179 28.5908 105.887L28.6087 105.911ZM41.2749 101.816C40.9764 107.361 40.869 112.327 40.8391 113.891L34.7866 110.387C34.7866 110.071 34.7866 109.79 34.7866 109.474C34.7866 107.516 34.7866 105.672 35.1746 97.9778C35.5864 88.7677 36.2967 79.2293 36.7086 74.102L42.8745 77.6833C42.3672 83.8135 41.6867 92.9758 41.2749 101.792V101.816Z" fill="#263238"/>
<path d="M95.8967 69.8699L69.2273 54.47L61.9512 58.6721V59.1974L88.6205 74.5973L95.8967 70.3952V69.8699Z" fill="#00C418"/>
<path d="M61.9512 58.6721L88.6205 74.072L95.8967 69.8699L69.2273 54.47L61.9512 58.6721Z" fill="#00C418"/>
<path opacity="0.3" d="M61.9512 58.6718L88.6205 74.0717L95.8967 69.8696L69.2273 54.6606L61.9512 58.6718Z" fill="white"/>
<path opacity="0.15" d="M61.9512 58.6719L88.6205 74.0718V74.5971L61.9512 59.1971V58.6719Z" fill="black"/>
<path d="M88.6211 74.0719L95.8972 69.8698V70.395L88.6211 74.5972V74.0719Z" fill="#00C418"/>
<path d="M88.6212 74.0783L61.9518 58.6783L54.6816 62.8805V64.2772L81.351 78.7997L88.6212 74.6035V74.0783Z" fill="#EBEBEB"/>
<path d="M54.6816 62.8805L81.351 78.2804L88.6212 74.0783L61.9518 58.6783L54.6816 62.8805Z" fill="#00C418"/>
<path opacity="0.6" d="M54.6816 62.8805L81.351 78.2804L88.6212 74.0783L61.9518 58.6783L54.6816 62.8805Z" fill="white"/>
<path d="M81.3506 78.2791L88.6208 74.0769V74.6022L81.3506 78.7984V78.2791Z" fill="#00C418"/>
<path opacity="0.3" d="M81.3506 78.2791L88.6208 74.0769V74.6022L81.3506 78.7984V78.2791Z" fill="white"/>
<path d="M81.3508 78.2679L54.6755 62.8739L47.4053 67.0701V67.5953L74.0746 82.9953L81.3508 78.7931V78.2679Z" fill="#00C418"/>
<path d="M47.4053 67.0701L74.0746 82.47L81.3508 78.2679L54.6755 62.8739L47.4053 67.0701Z" fill="#00C418"/>
<path opacity="0.3" d="M47.7812 67.0701L74.0745 82.47L81.3507 78.2679L54.6754 62.8739L47.7812 67.0701Z" fill="white"/>
<path opacity="0.15" d="M47.4053 67.0699L74.0746 82.4699V82.9951L47.4053 67.5952V67.0699Z" fill="white"/>
<path d="M74.0742 82.47L81.3504 78.2678V78.7931L74.0742 82.9952V82.47Z" fill="#00C418"/>
<path d="M80.8495 76.5127L85.5948 73.779C85.8813 73.6118 86.0305 73.4328 85.9291 73.3731C85.6783 73.3528 85.4286 73.4226 85.2247 73.57L80.4794 76.3038C80.1929 76.471 80.0437 76.65 80.1511 76.7097C80.2586 76.7694 80.569 76.6799 80.8495 76.5127Z" fill="#455A64"/>
<path d="M78.7781 75.3185L83.5235 72.5847C83.81 72.4176 83.9592 72.2385 83.8577 72.1788C83.6076 72.1552 83.3573 72.223 83.1534 72.3698L78.4081 75.1096C78.1216 75.2707 77.9723 75.4498 78.0738 75.5095C78.3242 75.5359 78.5754 75.4678 78.7781 75.3185Z" fill="#455A64"/>
<path d="M76.7067 74.1195L81.4521 71.3857C81.7386 71.2186 81.8878 71.0395 81.7804 70.9799C81.5297 70.9601 81.2801 71.0299 81.076 71.1768L76.3426 73.9106C76.0561 74.0777 75.9069 74.2568 76.0084 74.3165C76.2571 74.3353 76.5045 74.2656 76.7067 74.1195Z" fill="#455A64"/>
<path d="M74.6356 72.9262L79.4108 70.1864C79.6973 70.0253 79.8465 69.8462 79.7391 69.7865C79.4887 69.7606 79.2377 69.8287 79.0347 69.9775L74.2596 72.7113C73.979 72.8784 73.8298 73.0575 73.9313 73.1172C74.0328 73.1769 74.3491 73.0873 74.6356 72.9262Z" fill="#455A64"/>
<path d="M72.564 71.7262L77.3392 68.9924C77.6257 68.8253 77.7689 68.6462 77.6675 68.5865C77.566 68.5268 77.2496 68.6164 76.9631 68.7835L72.188 71.5173C71.9015 71.6844 71.7582 71.8635 71.8597 71.9232C72.1104 71.9429 72.3599 71.8731 72.564 71.7262Z" fill="#455A64"/>
<path d="M70.4932 70.5321L75.2683 67.7924C75.5548 67.6312 75.6981 67.4462 75.5966 67.3925C75.3463 67.3666 75.0953 67.4347 74.8923 67.5835L70.1171 70.3173C69.8306 70.4844 69.6814 70.6635 69.7888 70.7231C69.8963 70.7828 70.2066 70.6933 70.4932 70.5321Z" fill="#455A64"/>
<path d="M68.4219 69.3318L73.197 66.5981C73.4776 66.4309 73.6268 66.2519 73.5253 66.1922C73.2752 66.1691 73.0252 66.2369 72.821 66.3832L68.0458 69.1229C67.7593 69.2841 67.6101 69.4691 67.7175 69.5228C67.9679 69.5487 68.2189 69.4806 68.4219 69.3318Z" fill="#455A64"/>
<path d="M66.3446 68.1388L71.1197 65.399C71.4062 65.2379 71.5555 65.0528 71.454 64.9991C71.2036 64.9727 70.9524 65.0408 70.7496 65.1901L65.9745 67.9239C65.688 68.091 65.5387 68.2701 65.6402 68.3298C65.8904 68.3534 66.1406 68.2856 66.3446 68.1388Z" fill="#455A64"/>
<path d="M64.2733 66.9385L69.0484 64.2047C69.3349 64.0376 69.4842 63.8585 69.3767 63.7988C69.2693 63.7391 68.9589 63.7988 68.6784 63.9898L63.9032 66.7296C63.6167 66.8907 63.4675 67.0758 63.5689 67.1295C63.8193 67.156 64.0705 67.0878 64.2733 66.9385Z" fill="#455A64"/>
<path d="M62.2025 65.745L66.9776 63.0053C67.2641 62.8441 67.4134 62.6591 67.3059 62.6054C67.0556 62.5795 66.8046 62.6476 66.6016 62.7964L61.8563 65.5301C61.5757 65.6973 61.4265 65.8763 61.528 65.936C61.6294 65.9957 61.9159 65.9062 62.2025 65.745Z" fill="#455A64"/>
<path d="M60.1304 64.5454L64.9056 61.8116C65.1921 61.6445 65.3353 61.4654 65.2339 61.4057C65.1324 61.3461 64.816 61.4057 64.5295 61.5968L59.7544 64.3365C59.4679 64.4977 59.3246 64.6827 59.4261 64.7364C59.6764 64.7623 59.9274 64.6942 60.1304 64.5454Z" fill="#455A64"/>
<path d="M58.0591 63.3465L62.8045 60.6127C63.091 60.4455 63.2342 60.2665 63.1328 60.2068C62.8821 60.187 62.6325 60.2568 62.4284 60.4038L57.6532 63.1375C57.3667 63.3047 57.2175 63.4837 57.325 63.5434C57.4324 63.6031 57.7726 63.5136 58.0591 63.3465Z" fill="#455A64"/>
<path d="M124.989 121.93C124.936 108.142 123.3 89.7875 122.751 83.9856L116.71 80.4938L87.3313 97.4516C86.991 101.355 85.1407 122.927 84.9795 138.041L91.0201 141.526L124.989 121.93Z" fill="#37474F"/>
<path d="M87.3311 97.4516L93.3716 100.943L122.751 83.9856L116.71 80.4938L87.3311 97.4516Z" fill="#455A64"/>
<path d="M91.0205 141.539C91.1876 126.419 93.032 104.847 93.3782 100.95L122.752 83.9919C123.301 89.7938 124.936 108.148 124.99 121.937L91.0205 141.539Z" fill="#263238"/>
<path d="M91.0205 141.539C91.1876 126.42 93.032 104.848 93.3782 100.95L122.752 83.9863C123.301 89.7941 124.936 108.149 124.99 121.937L91.0205 141.539Z" fill="#455A64"/>
<path d="M184.381 117.017L123.76 82.0215L92.2438 100.221C92.2438 100.221 89.8145 126.819 89.8145 143.615L150.429 178.611L186.798 157.612C186.798 140.816 184.381 117.017 184.381 117.017Z" fill="#E0E0E0"/>
<path d="M150.584 170.321C150.489 173.234 150.429 176.045 150.429 178.624L89.8145 143.616C89.8145 141.037 89.8741 138.244 89.9696 135.307L150.584 170.321Z" fill="#00C418"/>
<path opacity="0.2" d="M150.584 170.321C150.489 173.234 150.429 176.045 150.429 178.624L89.8145 143.616C89.8145 141.037 89.8741 138.244 89.9696 135.307L150.584 170.321Z" fill="black"/>
<path d="M152.853 135.217L184.381 117.018C184.381 117.018 186.804 140.816 186.804 157.607L150.436 178.606C150.43 161.815 152.853 135.217 152.853 135.217Z" fill="#E0E0E0"/>
<path opacity="0.2" d="M152.853 135.217L184.381 117.018C184.381 117.018 186.804 140.816 186.804 157.607L150.436 178.606C150.43 161.815 152.853 135.217 152.853 135.217Z" fill="black"/>
<path d="M152.858 135.217V133.814L184.375 115.615V117.018L152.858 135.217Z" fill="#00C418"/>
<path d="M92.2383 100.221V98.8187L123.76 80.6194V82.0221L92.2383 100.221Z" fill="#00C418"/>
<path d="M152.859 133.815L92.2383 98.8188L123.76 80.6194L184.375 115.615L152.859 133.815Z" fill="#00C418"/>
<path opacity="0.3" d="M152.859 133.815L92.2383 98.8188L123.76 80.6194L184.375 115.615L152.859 133.815Z" fill="white"/>
<path d="M152.859 133.814V135.217L92.2383 100.221V98.8182L152.859 133.814Z" fill="#00C418"/>
<path opacity="0.15" d="M152.859 133.814V135.217L92.2383 100.221V98.8182L152.859 133.814Z" fill="white"/>
<path d="M149.576 136.125C149.116 141.497 148.107 154.092 147.636 165.803L92.9062 134.209C93.3957 122.367 94.4164 109.665 94.8521 104.531L149.576 136.125Z" fill="#37474F"/>
<path d="M95.3535 132.865C95.7594 123.775 96.4578 114.361 96.9233 108.482L147.063 137.432C146.645 142.457 145.869 152.032 145.421 161.767L95.3535 132.865Z" fill="#455A64"/>
<path d="M108.109 142.984L111.154 144.739C111.637 132.938 112.652 120.266 113.099 115.061L110.055 113.306C109.614 118.505 108.575 131.177 108.109 142.984Z" fill="#37474F"/>
<path d="M126.673 153.704L129.717 155.459C130.201 143.658 131.215 130.986 131.663 125.781L128.619 124.026C128.177 129.219 127.156 141.891 126.673 153.704Z" fill="#37474F"/>
<path d="M111.637 122.617V123.811L148.006 144.804V143.616L111.637 122.617Z" fill="#37474F"/>
<path d="M96.6666 107.987L96.6308 108.458C96.2249 113.49 95.4848 123.351 95.055 132.848C94.6491 140.554 94.661 142.398 94.673 144.374V145.621L108.073 153.381V152.868C108.073 152.814 108.157 146.982 108.515 140.333C108.933 131.433 109.619 122.181 110.121 115.985V115.794L96.6666 107.987ZM95.2699 144.368C95.2699 142.416 95.2699 140.566 95.6519 132.878C96.0637 123.679 96.7741 114.135 97.1859 109.002L102.785 112.231C102.379 117.316 101.651 127.052 101.227 136.435C100.821 144.141 100.833 145.985 100.845 147.961V148.528L95.2699 145.305V144.368ZM107.936 140.279C107.632 145.824 107.524 150.79 107.494 152.354L101.442 148.833V147.937C101.442 145.979 101.442 144.135 101.824 136.441C102.236 127.231 102.946 117.692 103.358 112.565L109.524 116.147C109.022 122.301 108.348 131.463 107.936 140.279Z" fill="#263238"/>
<path d="M162.552 108.357L135.883 92.957L128.606 97.1592V97.6844L155.282 113.078L162.552 108.882V108.357Z" fill="#00C418"/>
<path d="M128.606 97.1592L155.282 112.559L162.552 108.357L135.883 92.957L128.606 97.1592Z" fill="#00C418"/>
<path opacity="0.3" d="M128.606 97.1593L155.282 112.559L162.552 108.357L135.883 93.1482L128.606 97.1593Z" fill="white"/>
<path opacity="0.15" d="M128.606 97.1598L155.282 112.56V113.079L128.606 97.6851V97.1598Z" fill="black"/>
<path d="M155.282 112.559L162.552 108.357V108.883L155.282 113.079V112.559Z" fill="#00C418"/>
<path d="M155.282 112.565L128.607 97.165L121.337 101.367V102.764L148.006 117.286L155.282 113.09V112.565Z" fill="#EBEBEB"/>
<path d="M121.337 101.367L148.006 116.761L155.282 112.565L128.607 97.165L121.337 101.367Z" fill="#00C418"/>
<path opacity="0.6" d="M121.337 101.367L148.006 116.761L155.282 112.565L128.607 97.165L121.337 101.367Z" fill="white"/>
<path d="M148.006 116.761L155.282 112.565V113.091L148.006 117.287V116.761Z" fill="#00C418"/>
<path opacity="0.3" d="M148.006 116.761L155.282 112.565V113.091L148.006 117.287V116.761Z" fill="white"/>
<path d="M148.006 116.756L121.337 101.356L114.061 105.558V106.083L140.73 121.483L148.006 117.281V116.756Z" fill="#00C418"/>
<path d="M114.061 105.558L140.73 120.958L148.006 116.756L121.337 101.356L114.061 105.558Z" fill="#00C418"/>
<path opacity="0.3" d="M114.437 105.558L140.73 120.958L148.006 116.756L121.337 101.356L114.437 105.558Z" fill="white"/>
<path opacity="0.15" d="M114.061 105.558L140.73 120.958V121.483L114.061 106.083V105.558Z" fill="white"/>
<path d="M140.729 120.957L148.006 116.755V117.281L140.729 121.483V120.957Z" fill="#00C418"/>
<path d="M147.51 115L152.285 112.267C152.572 112.1 152.715 111.92 152.614 111.861C152.512 111.801 152.196 111.891 151.909 112.052L147.134 114.792C146.848 114.953 146.704 115.138 146.806 115.197C147.057 115.217 147.306 115.147 147.51 115Z" fill="#455A64"/>
<path d="M145.439 113.807L150.185 111.067C150.465 110.906 150.615 110.721 150.513 110.667C150.263 110.641 150.012 110.709 149.809 110.858L145.063 113.616C144.777 113.783 144.628 113.962 144.735 114.022C144.843 114.081 145.153 113.968 145.439 113.807Z" fill="#455A64"/>
<path d="M143.362 112.607L148.107 109.874C148.394 109.706 148.543 109.527 148.441 109.468C148.191 109.445 147.941 109.512 147.737 109.659L142.962 112.398C142.675 112.56 142.526 112.745 142.628 112.798C142.888 112.833 143.151 112.765 143.362 112.607Z" fill="#455A64"/>
<path d="M141.291 111.413L146.036 108.673C146.323 108.512 146.472 108.327 146.37 108.274C146.12 108.246 145.869 108.315 145.666 108.465L140.921 111.228C140.634 111.395 140.485 111.574 140.587 111.634C140.84 111.649 141.091 111.57 141.291 111.413Z" fill="#455A64"/>
<path d="M139.22 110.213L143.965 107.48C144.251 107.312 144.401 107.133 144.293 107.074C144.186 107.014 143.875 107.103 143.589 107.265L138.844 110.034C138.563 110.195 138.414 110.38 138.515 110.434C138.769 110.452 139.021 110.373 139.22 110.213Z" fill="#455A64"/>
<path d="M137.148 109.014L141.893 106.28C142.18 106.113 142.329 105.934 142.222 105.875C141.971 105.855 141.721 105.925 141.517 106.071L136.772 108.805C136.485 108.972 136.342 109.151 136.444 109.211C136.545 109.271 136.861 109.181 137.148 109.014Z" fill="#455A64"/>
<path d="M135.077 107.819L139.822 105.086C140.109 104.918 140.252 104.739 140.15 104.68C140.049 104.62 139.732 104.71 139.446 104.871L134.701 107.61C134.414 107.772 134.271 107.951 134.372 108.01C134.623 108.036 134.874 107.968 135.077 107.819Z" fill="#455A64"/>
<path d="M133.006 106.62L137.751 103.886C138.032 103.719 138.181 103.54 138.079 103.48C137.829 103.46 137.579 103.53 137.375 103.677L132.63 106.411C132.343 106.578 132.194 106.757 132.302 106.817C132.552 106.837 132.802 106.767 133.006 106.62Z" fill="#455A64"/>
<path d="M130.929 105.426L135.704 102.686C135.991 102.525 136.14 102.346 136.038 102.287C135.788 102.263 135.538 102.331 135.334 102.478L130.589 105.217C130.302 105.378 130.153 105.558 130.261 105.617C130.368 105.677 130.66 105.587 130.929 105.426Z" fill="#455A64"/>
<path d="M128.869 104.227L133.645 101.493C133.931 101.326 134.08 101.147 133.979 101.087C133.728 101.066 133.478 101.136 133.274 101.284L128.529 104.018C128.243 104.185 128.093 104.364 128.195 104.424C128.436 104.437 128.674 104.367 128.869 104.227Z" fill="#455A64"/>
<path d="M126.786 103.033L131.562 100.293C131.848 100.132 131.997 99.9468 131.89 99.8931C131.64 99.8672 131.388 99.9353 131.186 100.084L126.446 102.818C126.16 102.985 126.01 103.164 126.112 103.224C126.352 103.24 126.59 103.172 126.786 103.033Z" fill="#455A64"/>
<path d="M124.691 101.833L129.466 99.0991C129.753 98.932 129.902 98.753 129.795 98.6933C129.687 98.6336 129.377 98.7231 129.09 98.8843L124.315 101.624C124.035 101.785 123.885 101.97 123.987 102.03C124.238 102.05 124.487 101.98 124.691 101.833Z" fill="#455A64"/>
<path d="M191.645 160.418C191.591 146.63 189.961 128.275 189.406 122.468L183.366 118.988L153.992 135.94C153.646 139.843 151.802 161.415 151.635 176.528L157.675 180.02L191.645 160.418Z" fill="#37474F"/>
<path d="M153.993 135.94L160.034 139.432L189.407 122.468L183.366 118.982L153.993 135.94Z" fill="#455A64"/>
<path d="M157.676 180.027C157.843 164.907 159.687 143.335 160.034 139.438L189.407 122.474C189.962 128.282 191.591 146.636 191.645 160.425L157.676 180.027Z" fill="#263238"/>
<path d="M157.682 180.027C157.843 164.907 159.687 143.335 160.033 139.438L189.407 122.474C189.962 128.282 191.591 146.636 191.645 160.425L157.682 180.027Z" fill="#455A64"/>
<path d="M271.665 209.925C271.662 204.049 270.407 198.242 267.982 192.89L259.655 174.499C254.048 162.129 244.707 151.826 232.944 145.037L190.415 120.486L158.899 138.686C158.899 138.686 156.476 165.283 156.476 182.08L203.248 209.119C212.443 214.427 222.27 218.556 232.496 221.409L243.425 224.465C246.997 225.465 250.733 225.74 254.413 225.276C258.092 224.812 261.642 223.617 264.854 221.762C266.928 220.56 268.649 218.833 269.845 216.756C271.04 214.678 271.668 212.322 271.665 209.925Z" fill="#E0E0E0"/>
<path d="M271.157 203.526C270.897 201.88 270.538 200.252 270.083 198.649L265.117 207.042L244.989 208.433C244.989 208.433 247.419 212.39 248.039 213.608C261.977 213.715 269.319 210.862 271.157 203.526Z" fill="#263238"/>
<path d="M247.61 210.176C247.624 210.411 247.689 210.64 247.801 210.846C247.914 211.052 248.071 211.231 248.261 211.37C248.853 211.767 249.519 212.042 250.219 212.18C250.919 212.317 251.639 212.314 252.338 212.17C252.935 212.068 253.609 211.734 253.669 211.131C253.794 209.824 251.335 209.34 250.44 209.179C249.544 209.018 247.76 208.964 247.61 210.176Z" fill="#FAFAFA"/>
<path d="M255.817 212.223C256.092 212.176 256.217 212.092 256.277 211.985C256.316 211.884 256.326 211.775 256.305 211.669C256.284 211.563 256.232 211.465 256.157 211.388C255.986 211.161 255.755 210.986 255.491 210.88C255.227 210.775 254.939 210.744 254.659 210.791C254.573 210.806 254.491 210.838 254.418 210.885C254.344 210.932 254.28 210.993 254.23 211.064C254.181 211.136 254.145 211.217 254.127 211.302C254.108 211.387 254.106 211.475 254.122 211.561C254.217 212.265 255.22 212.331 255.817 212.223Z" fill="#FAFAFA"/>
<path d="M271.104 203.15C270.911 203.275 270.684 203.339 270.455 203.334C270.225 203.328 270.002 203.254 269.814 203.12C268.764 202.344 269.456 200.733 269.743 200.177C269.889 199.899 270.08 199.646 270.31 199.431C271.11 200.577 271.158 202.195 271.104 203.15Z" fill="#FAFAFA"/>
<path d="M270.059 205.108C269.993 205.212 269.889 205.287 269.769 205.317C269.649 205.347 269.522 205.33 269.415 205.269C269.242 205.158 269.119 204.985 269.069 204.786C268.949 204.29 268.961 203.849 269.283 203.622C269.411 203.546 269.559 203.513 269.707 203.525C269.855 203.538 269.995 203.597 270.107 203.693C270.603 204.04 270.334 204.792 270.059 205.108Z" fill="#FAFAFA"/>
<path d="M271.444 212.336C270.93 215.834 264.74 223.08 253.25 222.836C241.76 222.591 232.043 217.099 217.245 208.797L156.631 173.795C156.535 176.701 156.481 179.507 156.481 182.085L203.248 209.119C212.443 214.426 222.27 218.555 232.496 221.409L243.425 224.465C246.997 225.463 250.733 225.738 254.412 225.273C258.092 224.809 261.642 223.615 264.854 221.761C266.573 220.767 268.055 219.409 269.196 217.784C270.338 216.158 271.111 214.303 271.462 212.348L271.444 212.336Z" fill="#00C418"/>
<path opacity="0.2" d="M271.444 212.336C270.93 215.834 264.74 223.08 253.25 222.836C241.76 222.591 232.043 217.099 217.245 208.797L156.631 173.795C156.535 176.701 156.481 179.507 156.481 182.085L203.248 209.119C212.443 214.426 222.27 218.555 232.496 221.409L243.425 224.465C246.997 225.463 250.733 225.738 254.412 225.273C258.092 224.809 261.642 223.615 264.854 221.761C266.573 220.767 268.055 219.409 269.196 217.784C270.338 216.158 271.111 214.303 271.462 212.348L271.444 212.336Z" fill="black"/>
<path d="M158.899 138.71V137.307L190.416 119.108V120.51L158.899 138.71Z" fill="#00C418"/>
<path d="M234.287 144.452L190.416 119.108L158.899 137.307L202.771 162.651C213.945 169.08 228.02 176.845 247.419 209.406L265.117 207.019L270.089 198.62C255.083 156.438 243.641 150.027 234.287 144.452Z" fill="#00C418"/>
<path opacity="0.3" d="M234.287 144.452L190.416 119.108L158.899 137.307L202.771 162.651C213.945 169.08 228.02 176.845 247.419 209.406L265.117 207.019L270.089 198.62C255.083 156.438 243.641 150.027 234.287 144.452Z" fill="white"/>
<path d="M267.457 198.375L263.655 204.815L248.136 205.836C237.254 187.816 228.534 178.462 220.529 171.711C233.142 167.402 241.486 162.436 246.196 156.896C252.356 163.934 259.357 175.836 267.457 198.375Z" fill="#37474F"/>
<path d="M266.156 198.267L262.933 203.729L248.78 204.565C243.959 196.495 238.443 188.861 232.294 181.751C240.465 178.433 247.7 174.469 253.478 169.521C257.71 177 261.906 186.526 266.156 198.267Z" fill="#455A64"/>
<path d="M202.771 162.651V164.053C213.945 170.482 229.805 182.444 244.99 208.433L247.419 209.406C228.02 176.845 213.945 169.079 202.771 162.651Z" fill="#00C418"/>
<path opacity="0.15" d="M202.771 162.651V164.053C213.945 170.482 229.805 182.444 244.99 208.433L247.419 209.406C228.02 176.845 213.945 169.079 202.771 162.651Z" fill="white"/>
<path d="M202.771 162.651V164.054L158.899 138.709V137.307L202.771 162.651Z" fill="#00C418"/>
<path opacity="0.15" d="M202.771 162.651V164.054L158.899 138.709V137.307L202.771 162.651Z" fill="white"/>
<path d="M214.387 204.344L159.657 172.708C160.147 160.866 161.167 148.164 161.603 143.031L203.983 167.504C212.662 172.517 220.547 178.594 226.898 186.353C232.167 192.784 236.978 199.578 241.295 206.684L226.969 211.626L214.387 204.344Z" fill="#37474F"/>
<path d="M224.122 185.614C224.122 185.614 224.791 190.389 227.321 209.406L238.483 205.61C238.483 205.61 230.443 193.152 224.122 185.614Z" fill="#455A64"/>
<path opacity="0.1" d="M224.122 185.614C224.122 185.614 224.791 190.389 227.321 209.406L238.483 205.61C238.483 205.61 230.443 193.152 224.122 185.614Z" fill="white"/>
<path d="M224.122 185.614C222.104 183.596 216.362 178.612 216.362 178.612C216.362 178.612 214.858 196.197 214.673 201.7L227.333 209.406L224.122 185.614Z" fill="#455A64"/>
<path d="M162.23 171.562C162.636 162.472 163.329 153.059 163.794 147.179L213.934 176.135C213.51 181.16 212.74 190.729 212.286 200.47L162.23 171.562Z" fill="#455A64"/>
<path d="M196.002 193.707L199.04 195.462C199.524 183.661 200.544 170.989 200.986 165.784L197.948 164.03C197.512 169.229 196.485 181.901 196.002 193.707Z" fill="#37474F"/>
<path d="M177.511 183.041L180.555 184.796C181.038 173.001 182.059 160.323 182.501 155.124L179.463 153.334C179.009 158.562 178 171.235 177.511 183.041Z" fill="#37474F"/>
<path d="M162.952 152.223V153.416L199.321 174.415V173.221L162.952 152.223Z" fill="#37474F"/>
<path d="M200.497 167.933L200.461 168.398C200.055 173.436 199.315 183.321 198.891 192.794C198.479 200.5 198.491 202.344 198.503 204.32C198.503 204.66 198.503 205.012 198.503 205.394V205.537L211.903 213.297V212.784C211.903 212.724 211.987 206.898 212.351 200.249C212.769 191.343 213.455 182.091 213.957 175.895V175.71L200.497 167.933ZM199.1 204.314C199.1 202.356 199.1 200.511 199.488 192.823C199.9 183.619 200.61 174.075 201.016 168.918L206.621 172.153C206.209 177.238 205.481 186.974 205.063 196.357C204.651 204.063 204.663 205.907 204.675 207.883C204.675 208.068 204.675 208.253 204.675 208.48L199.1 205.251C199.1 204.887 199.1 204.588 199.094 204.296L199.1 204.314ZM211.766 200.225C211.462 205.77 211.354 210.736 211.33 212.3L205.272 208.778C205.272 208.456 205.272 208.152 205.272 207.859C205.272 205.907 205.272 204.057 205.66 196.369C206.072 187.159 206.782 177.62 207.188 172.463L213.36 176.045C212.852 182.223 212.172 191.385 211.76 200.207L211.766 200.225Z" fill="#263238"/>
<path d="M225.363 144.607L198.688 129.213L191.418 133.409V133.934L218.087 149.334L225.363 145.132V144.607Z" fill="#00C418"/>
<path d="M191.418 133.409L218.087 148.809L225.363 144.607L198.688 129.213L191.418 133.409Z" fill="#00C418"/>
<path opacity="0.3" d="M191.418 133.409L218.087 148.809L225.363 144.607L198.688 129.404L191.418 133.409Z" fill="white"/>
<path opacity="0.15" d="M191.418 133.409L218.087 148.808V149.334L191.418 133.934V133.409Z" fill="black"/>
<path d="M218.088 148.809L225.364 144.607V145.132L218.088 149.334V148.809Z" fill="#00C418"/>
<path d="M218.087 148.814L191.418 133.414L184.142 137.616V139.019L210.811 153.535L218.087 149.339V148.814Z" fill="#EBEBEB"/>
<path d="M184.142 137.616L210.811 153.016L218.087 148.814L191.418 133.414L184.142 137.616Z" fill="#00C418"/>
<path opacity="0.6" d="M184.142 137.616L210.811 153.016L218.087 148.814L191.418 133.414L184.142 137.616Z" fill="white"/>
<path d="M210.812 153.017L218.088 148.815V149.34L210.812 153.536V153.017Z" fill="#00C418"/>
<path opacity="0.3" d="M210.812 153.017L218.088 148.815V149.34L210.812 153.536V153.017Z" fill="white"/>
<path d="M210.818 153.011L184.142 137.611L176.872 141.807V142.332L203.541 157.732L210.818 153.53V153.011Z" fill="#00C418"/>
<path d="M176.872 141.807L203.541 157.207L210.818 153.011L184.142 137.611L176.872 141.807Z" fill="#00C418"/>
<path opacity="0.3" d="M177.242 141.807L203.541 157.207L210.818 153.011L184.142 137.611L177.242 141.807Z" fill="white"/>
<path opacity="0.15" d="M176.872 141.807L203.541 157.207V157.733L176.872 142.333V141.807Z" fill="white"/>
<path d="M203.541 157.207L210.817 153.011V153.531L203.541 157.733V157.207Z" fill="#00C418"/>
<path d="M210.316 151.256L215.062 148.516C215.348 148.349 215.497 148.17 215.39 148.11C215.139 148.091 214.89 148.16 214.686 148.307L209.946 151.041C209.66 151.208 209.51 151.387 209.612 151.447C209.862 151.47 210.112 151.402 210.316 151.256Z" fill="#455A64"/>
<path d="M208.257 150.056L213.002 147.323C213.289 147.155 213.438 146.976 213.33 146.917C213.223 146.857 212.913 146.917 212.626 147.108L207.881 149.847C207.6 150.009 207.451 150.188 207.552 150.247C207.803 150.273 208.054 150.205 208.257 150.056Z" fill="#455A64"/>
<path d="M206.173 148.833L210.919 146.099C211.205 145.932 211.348 145.753 211.247 145.693C210.996 145.673 210.747 145.743 210.543 145.89L205.797 148.624C205.511 148.791 205.368 148.97 205.469 149.03C205.72 149.049 205.969 148.979 206.173 148.833Z" fill="#455A64"/>
<path d="M204.078 147.639L208.823 144.899C209.11 144.738 209.253 144.559 209.152 144.499C209.05 144.439 208.734 144.529 208.447 144.69L203.702 147.43C203.416 147.591 203.266 147.77 203.374 147.83C203.481 147.889 203.815 147.824 204.078 147.639Z" fill="#455A64"/>
<path d="M202.031 146.445L206.777 143.712C207.057 143.545 207.206 143.365 207.105 143.306C206.854 143.286 206.605 143.356 206.401 143.503L201.655 146.237C201.369 146.404 201.219 146.583 201.327 146.642C201.578 146.662 201.827 146.592 202.031 146.445Z" fill="#455A64"/>
<path d="M199.953 145.251L204.729 142.511C205.015 142.35 205.164 142.165 205.063 142.111C204.812 142.085 204.561 142.153 204.358 142.302L199.613 145.036C199.327 145.203 199.177 145.382 199.279 145.442C199.519 145.458 199.757 145.391 199.953 145.251Z" fill="#455A64"/>
<path d="M197.883 144.057L202.628 141.324C202.914 141.156 203.064 140.977 202.956 140.918C202.849 140.858 202.538 140.947 202.258 141.109L197.513 143.86C197.226 144.022 197.077 144.207 197.178 144.266C197.431 144.283 197.68 144.209 197.883 144.057Z" fill="#455A64"/>
<path d="M195.811 142.863L200.587 140.123C200.873 139.962 201.022 139.777 200.915 139.724C200.665 139.698 200.413 139.766 200.211 139.915L195.435 142.648C195.155 142.815 195.006 142.995 195.107 143.054C195.209 143.114 195.525 143.036 195.811 142.863Z" fill="#455A64"/>
<path d="M193.74 141.67L198.485 138.936C198.772 138.769 198.915 138.59 198.813 138.53C198.712 138.47 198.396 138.56 198.109 138.721L193.364 141.461C193.077 141.622 192.934 141.807 193.035 141.861C193.286 141.887 193.537 141.819 193.74 141.67Z" fill="#455A64"/>
<path d="M191.668 140.476L196.444 137.736C196.73 137.575 196.873 137.39 196.772 137.336C196.522 137.311 196.27 137.379 196.068 137.527L191.322 140.261C191.036 140.428 190.886 140.607 190.994 140.667C191.101 140.727 191.382 140.643 191.668 140.476Z" fill="#455A64"/>
<path d="M189.598 139.282L194.343 136.548C194.624 136.381 194.773 136.202 194.671 136.142C194.57 136.083 194.253 136.142 193.967 136.333L189.222 139.073C188.935 139.234 188.786 139.419 188.893 139.473C189.144 139.499 189.395 139.431 189.598 139.282Z" fill="#455A64"/>
<path d="M187.52 138.089L192.266 135.349C192.552 135.188 192.701 135.003 192.6 134.943C192.349 134.923 192.099 134.993 191.896 135.14L187.15 137.874C186.864 138.041 186.715 138.22 186.816 138.28C187.066 138.303 187.316 138.236 187.52 138.089Z" fill="#455A64"/>
<defs>
<clipPath id="clip0_1223_4231">
<rect x="0.334961" width="230" height="230" rx="115" fill="white"/>
</clipPath>
</defs>
</svg>
