<svg width="346" height="79" viewBox="0 0 346 79" fill="none" xmlns="http://www.w3.org/2000/svg">
<rect width="346" height="78.6286" rx="10" fill="#242426"/>
<path d="M35.5455 39.3125C35.5456 38.171 35.8842 37.0552 36.5186 36.1062C37.1529 35.1572 38.0545 34.4176 39.1093 33.9809C40.1641 33.5442 41.3248 33.43 42.4445 33.6528C43.5642 33.8756 44.5927 34.4254 45.3999 35.2326C46.207 36.0398 46.7567 37.0682 46.9793 38.1878C47.2019 39.3073 47.0874 40.4677 46.6503 41.5222C46.2133 42.5767 45.4733 43.4779 44.524 44.1119C43.5746 44.7459 42.4585 45.0842 41.3168 45.084C39.786 45.0838 38.318 44.4756 37.2357 43.3932C36.1533 42.3109 35.5454 40.843 35.5455 39.3125ZM32.4247 39.3125C32.4247 41.0708 32.9462 42.7897 33.9233 44.2517C34.9004 45.7137 36.2891 46.8532 37.914 47.5261C39.5388 48.199 41.3267 48.3751 43.0516 48.032C44.7765 47.689 46.361 46.8423 47.6046 45.5989C48.8482 44.3556 49.695 42.7715 50.0382 41.0469C50.3813 39.3223 50.2052 37.5348 49.5321 35.9103C48.8591 34.2857 47.7194 32.8973 46.2571 31.9204C44.7948 30.9435 43.0755 30.4221 41.3168 30.4221C40.1491 30.422 38.9928 30.6519 37.9139 31.0987C36.835 31.5454 35.8547 32.2003 35.029 33.0259C34.2033 33.8514 33.5483 34.8315 33.1014 35.9102C32.6546 36.9888 32.4246 38.1449 32.4247 39.3125ZM48.483 30.0698C48.4828 30.4807 48.6045 30.8824 48.8326 31.2242C49.0608 31.5659 49.3852 31.8323 49.7649 31.9897C50.1445 32.1472 50.5623 32.1885 50.9654 32.1085C51.3685 32.0285 51.7389 31.8308 52.0296 31.5404C52.3203 31.25 52.5184 30.8799 52.5987 30.4769C52.6791 30.0739 52.6381 29.6562 52.481 29.2765C52.3239 28.8968 52.0577 28.5722 51.7161 28.3438C51.3745 28.1154 50.9728 27.9934 50.5618 27.9932C50.0109 27.9934 49.4827 28.2123 49.0931 28.6016C48.7035 28.991 48.4834 29.519 48.483 30.0698ZM34.3216 53.4056C33.2235 53.3935 32.1357 53.1926 31.1058 52.8116C30.3589 52.5238 29.6805 52.0828 29.1144 51.517C28.5482 50.9512 28.1068 50.2731 27.8186 49.5265C27.4374 48.4968 27.2364 47.4092 27.2245 46.3113C27.1405 44.4864 27.124 43.9381 27.124 39.3147C27.124 34.6914 27.1423 34.1444 27.2245 32.3178C27.2379 31.22 27.4388 30.1326 27.8186 29.1025C28.1065 28.3555 28.5478 27.6771 29.1139 27.1111C29.6801 26.545 30.3586 26.1039 31.1058 25.816C32.1357 25.4349 33.2235 25.234 34.3216 25.2221C36.1469 25.138 36.6953 25.1216 41.3178 25.1216C45.9402 25.1216 46.4891 25.1394 48.3162 25.2225C49.4141 25.2358 50.5017 25.4367 51.532 25.8165C52.2792 26.1043 52.9577 26.5455 53.5238 27.1116C54.09 27.6776 54.5313 28.356 54.8192 29.103C55.2004 30.1327 55.4013 31.2203 55.4133 32.3182C55.4973 34.1458 55.5138 34.6914 55.5138 39.3152C55.5138 43.939 55.4969 44.4855 55.4133 46.3122C55.4005 47.41 55.1995 48.4975 54.8192 49.5274C54.531 50.2741 54.0896 50.9521 53.5234 51.5179C52.9573 52.0837 52.2789 52.5247 51.532 52.8125C50.5021 53.1937 49.4143 53.3946 48.3162 53.4065C46.4909 53.4906 45.9425 53.507 41.3178 53.507C36.693 53.507 36.1464 53.4892 34.3216 53.4056ZM34.1782 22.1046C32.7413 22.1329 31.3196 22.4048 29.9738 22.9088C28.8233 23.3535 27.7785 24.0337 26.9063 24.9057C26.0341 25.7777 25.3538 26.8224 24.909 27.9726C24.4049 29.3182 24.133 30.7395 24.1047 32.1761C24.0192 34.022 24 34.6123 24 39.3143C24 44.0163 24.0197 44.6061 24.1047 46.4525C24.133 47.889 24.4049 49.3104 24.909 50.656C25.3538 51.8062 26.0341 52.8508 26.9063 53.7228C27.7785 54.5948 28.8234 55.275 29.9738 55.7198C31.3197 56.2236 32.7413 56.4955 34.1782 56.5239C36.0253 56.608 36.6148 56.6286 41.3178 56.6286C46.0207 56.6286 46.6107 56.6089 48.4574 56.5239C49.8942 56.4956 51.3158 56.2237 52.6617 55.7198C53.8122 55.275 54.857 54.5948 55.7292 53.7228C56.6014 52.8508 57.2817 51.8062 57.7266 50.656C58.2313 49.3106 58.5032 47.8891 58.5309 46.4525C58.615 44.6052 58.6341 44.0163 58.6341 39.3143C58.6341 34.6123 58.6145 34.0225 58.5309 32.1761C58.5026 30.7395 58.2307 29.3182 57.7266 27.9726C57.2817 26.8226 56.6016 25.7781 55.7296 24.9061C54.8577 24.0341 53.8132 23.3538 52.6631 22.9088C51.3173 22.4045 49.8956 22.1325 48.4587 22.1046C46.612 22.0201 46.022 22 41.32 22C36.618 22 36.0258 22.0196 34.1782 22.1046Z" fill="#B0B0B0"/>
<rect x="74.6338" y="54.3143" width="30" height="1.68153" rx="0.840764" transform="rotate(-90 74.6338 54.3143)" fill="#B0B0B0"/>
<path d="M99.5814 26.4863V28.4043H95.5774V30.4763H98.5734V32.3383H95.5774V36.3143H93.1834V26.4863H99.5814ZM105.488 36.4123C104.564 36.4123 103.714 36.1976 102.94 35.7683C102.174 35.3389 101.563 34.7416 101.106 33.9763C100.658 33.2016 100.434 32.3336 100.434 31.3723C100.434 30.4109 100.658 29.5476 101.106 28.7823C101.563 28.0169 102.174 27.4196 102.94 26.9903C103.714 26.5609 104.564 26.3463 105.488 26.3463C106.412 26.3463 107.256 26.5609 108.022 26.9903C108.796 27.4196 109.403 28.0169 109.842 28.7823C110.29 29.5476 110.514 30.4109 110.514 31.3723C110.514 32.3336 110.29 33.2016 109.842 33.9763C109.394 34.7416 108.787 35.3389 108.022 35.7683C107.256 36.1976 106.412 36.4123 105.488 36.4123ZM105.488 34.2283C106.272 34.2283 106.897 33.9669 107.364 33.4443C107.84 32.9216 108.078 32.2309 108.078 31.3723C108.078 30.5043 107.84 29.8136 107.364 29.3003C106.897 28.7776 106.272 28.5163 105.488 28.5163C104.694 28.5163 104.06 28.7729 103.584 29.2863C103.117 29.7996 102.884 30.4949 102.884 31.3723C102.884 32.2403 103.117 32.9356 103.584 33.4583C104.06 33.9716 104.694 34.2283 105.488 34.2283ZM114.24 34.4663H117.376V36.3143H111.846V26.4863H114.24V34.4663ZM120.911 34.4663H124.047V36.3143H118.517V26.4863H120.911V34.4663ZM129.837 36.4123C128.913 36.4123 128.064 36.1976 127.289 35.7683C126.524 35.3389 125.913 34.7416 125.455 33.9763C125.007 33.2016 124.783 32.3336 124.783 31.3723C124.783 30.4109 125.007 29.5476 125.455 28.7823C125.913 28.0169 126.524 27.4196 127.289 26.9903C128.064 26.5609 128.913 26.3463 129.837 26.3463C130.761 26.3463 131.606 26.5609 132.371 26.9903C133.146 27.4196 133.753 28.0169 134.191 28.7823C134.639 29.5476 134.863 30.4109 134.863 31.3723C134.863 32.3336 134.639 33.2016 134.191 33.9763C133.743 34.7416 133.137 35.3389 132.371 35.7683C131.606 36.1976 130.761 36.4123 129.837 36.4123ZM129.837 34.2283C130.621 34.2283 131.247 33.9669 131.713 33.4443C132.189 32.9216 132.427 32.2309 132.427 31.3723C132.427 30.5043 132.189 29.8136 131.713 29.3003C131.247 28.7776 130.621 28.5163 129.837 28.5163C129.044 28.5163 128.409 28.7729 127.933 29.2863C127.467 29.7996 127.233 30.4949 127.233 31.3723C127.233 32.2403 127.467 32.9356 127.933 33.4583C128.409 33.9716 129.044 34.2283 129.837 34.2283ZM149.719 26.4863L147.157 36.3143H144.259L142.691 29.8463L141.067 36.3143H138.169L135.677 26.4863H138.239L139.653 33.6403L141.403 26.4863H144.035L145.715 33.6403L147.143 26.4863H149.719ZM156.239 26.4863V32.3663C156.239 32.9543 156.383 33.4069 156.673 33.7243C156.962 34.0416 157.387 34.2003 157.947 34.2003C158.507 34.2003 158.936 34.0416 159.235 33.7243C159.533 33.4069 159.683 32.9543 159.683 32.3663V26.4863H162.077V32.3523C162.077 33.2296 161.89 33.9716 161.517 34.5783C161.143 35.1849 160.639 35.6423 160.005 35.9503C159.379 36.2583 158.679 36.4123 157.905 36.4123C157.13 36.4123 156.435 36.2629 155.819 35.9643C155.212 35.6563 154.731 35.1989 154.377 34.5923C154.022 33.9763 153.845 33.2296 153.845 32.3523V26.4863H156.239ZM167.314 36.4123C166.595 36.4123 165.951 36.2956 165.382 36.0623C164.812 35.8289 164.355 35.4836 164.01 35.0263C163.674 34.5689 163.496 34.0183 163.478 33.3743H166.026C166.063 33.7383 166.189 34.0183 166.404 34.2143C166.618 34.4009 166.898 34.4943 167.244 34.4943C167.598 34.4943 167.878 34.4149 168.084 34.2563C168.289 34.0883 168.392 33.8596 168.392 33.5703C168.392 33.3276 168.308 33.1269 168.14 32.9683C167.981 32.8096 167.78 32.6789 167.538 32.5763C167.304 32.4736 166.968 32.3569 166.53 32.2263C165.895 32.0303 165.377 31.8343 164.976 31.6383C164.574 31.4423 164.229 31.1529 163.94 30.7703C163.65 30.3876 163.506 29.8883 163.506 29.2723C163.506 28.3576 163.837 27.6436 164.5 27.1303C165.162 26.6076 166.026 26.3463 167.09 26.3463C168.172 26.3463 169.045 26.6076 169.708 27.1303C170.37 27.6436 170.725 28.3623 170.772 29.2863H168.182C168.163 28.9689 168.046 28.7216 167.832 28.5443C167.617 28.3576 167.342 28.2643 167.006 28.2643C166.716 28.2643 166.483 28.3436 166.306 28.5023C166.128 28.6516 166.04 28.8709 166.04 29.1603C166.04 29.4776 166.189 29.7249 166.488 29.9023C166.786 30.0796 167.253 30.2709 167.888 30.4763C168.522 30.6909 169.036 30.8963 169.428 31.0923C169.829 31.2883 170.174 31.5729 170.464 31.9463C170.753 32.3196 170.898 32.8003 170.898 33.3883C170.898 33.9483 170.753 34.4569 170.464 34.9143C170.184 35.3716 169.773 35.7356 169.232 36.0063C168.69 36.2769 168.051 36.4123 167.314 36.4123ZM181.736 26.4863V28.4043H177.732V30.4763H180.728V32.3383H177.732V36.3143H175.338V26.4863H181.736ZM187.642 36.4123C186.718 36.4123 185.869 36.1976 185.094 35.7683C184.329 35.3389 183.717 34.7416 183.26 33.9763C182.812 33.2016 182.588 32.3336 182.588 31.3723C182.588 30.4109 182.812 29.5476 183.26 28.7823C183.717 28.0169 184.329 27.4196 185.094 26.9903C185.869 26.5609 186.718 26.3463 187.642 26.3463C188.566 26.3463 189.411 26.5609 190.176 26.9903C190.951 27.4196 191.557 28.0169 191.996 28.7823C192.444 29.5476 192.668 30.4109 192.668 31.3723C192.668 32.3336 192.444 33.2016 191.996 33.9763C191.548 34.7416 190.941 35.3389 190.176 35.7683C189.411 36.1976 188.566 36.4123 187.642 36.4123ZM187.642 34.2283C188.426 34.2283 189.051 33.9669 189.518 33.4443C189.994 32.9216 190.232 32.2309 190.232 31.3723C190.232 30.5043 189.994 29.8136 189.518 29.3003C189.051 28.7776 188.426 28.5163 187.642 28.5163C186.849 28.5163 186.214 28.7729 185.738 29.2863C185.271 29.7996 185.038 30.4949 185.038 31.3723C185.038 32.2403 185.271 32.9356 185.738 33.4583C186.214 33.9716 186.849 34.2283 187.642 34.2283ZM199.012 36.3143L196.968 32.6043H196.394V36.3143H194V26.4863H198.018C198.793 26.4863 199.451 26.6216 199.992 26.8923C200.543 27.1629 200.953 27.5363 201.224 28.0123C201.495 28.4789 201.63 29.0016 201.63 29.5803C201.63 30.2336 201.443 30.8169 201.07 31.3303C200.706 31.8436 200.165 32.2076 199.446 32.4223L201.714 36.3143H199.012ZM196.394 30.9103H197.878C198.317 30.9103 198.643 30.8029 198.858 30.5883C199.082 30.3736 199.194 30.0703 199.194 29.6783C199.194 29.3049 199.082 29.0109 198.858 28.7963C198.643 28.5816 198.317 28.4743 197.878 28.4743H196.394V30.9103ZM217.229 26.4863V36.3143H214.835V30.4203L212.637 36.3143H210.705L208.493 30.4063V36.3143H206.099V26.4863H208.927L211.685 33.2903L214.415 26.4863H217.229ZM223.599 36.4123C222.675 36.4123 221.826 36.1976 221.051 35.7683C220.286 35.3389 219.674 34.7416 219.217 33.9763C218.769 33.2016 218.545 32.3336 218.545 31.3723C218.545 30.4109 218.769 29.5476 219.217 28.7823C219.674 28.0169 220.286 27.4196 221.051 26.9903C221.826 26.5609 222.675 26.3463 223.599 26.3463C224.523 26.3463 225.368 26.5609 226.133 26.9903C226.908 27.4196 227.514 28.0169 227.953 28.7823C228.401 29.5476 228.625 30.4109 228.625 31.3723C228.625 32.3336 228.401 33.2016 227.953 33.9763C227.505 34.7416 226.898 35.3389 226.133 35.7683C225.368 36.1976 224.523 36.4123 223.599 36.4123ZM223.599 34.2283C224.383 34.2283 225.008 33.9669 225.475 33.4443C225.951 32.9216 226.189 32.2309 226.189 31.3723C226.189 30.5043 225.951 29.8136 225.475 29.3003C225.008 28.7776 224.383 28.5163 223.599 28.5163C222.806 28.5163 222.171 28.7729 221.695 29.2863C221.228 29.7996 220.995 30.4949 220.995 31.3723C220.995 32.2403 221.228 32.9356 221.695 33.4583C222.171 33.9716 222.806 34.2283 223.599 34.2283ZM234.969 36.3143L232.925 32.6043H232.351V36.3143H229.957V26.4863H233.975C234.75 26.4863 235.408 26.6216 235.949 26.8923C236.5 27.1629 236.91 27.5363 237.181 28.0123C237.452 28.4789 237.587 29.0016 237.587 29.5803C237.587 30.2336 237.4 30.8169 237.027 31.3303C236.663 31.8436 236.122 32.2076 235.403 32.4223L237.671 36.3143H234.969ZM232.351 30.9103H233.835C234.274 30.9103 234.6 30.8029 234.815 30.5883C235.039 30.3736 235.151 30.0703 235.151 29.6783C235.151 29.3049 235.039 29.0109 234.815 28.7963C234.6 28.5816 234.274 28.4743 233.835 28.4743H232.351V30.9103ZM241.484 28.4043V30.3923H244.69V32.2403H241.484V34.3963H245.11V36.3143H239.09V26.4863H245.11V28.4043H241.484ZM251.983 26.4863V32.3663C251.983 32.9543 252.127 33.4069 252.417 33.7243C252.706 34.0416 253.131 34.2003 253.691 34.2003C254.251 34.2003 254.68 34.0416 254.979 33.7243C255.277 33.4069 255.427 32.9543 255.427 32.3663V26.4863H257.821V32.3523C257.821 33.2296 257.634 33.9716 257.261 34.5783C256.887 35.1849 256.383 35.6423 255.749 35.9503C255.123 36.2583 254.423 36.4123 253.649 36.4123C252.874 36.4123 252.179 36.2629 251.563 35.9643C250.956 35.6563 250.475 35.1989 250.121 34.5923C249.766 33.9763 249.589 33.2296 249.589 32.3523V26.4863H251.983ZM266.992 29.6503C266.992 30.2196 266.861 30.7423 266.6 31.2183C266.338 31.6849 265.937 32.0629 265.396 32.3523C264.854 32.6416 264.182 32.7863 263.38 32.7863H261.896V36.3143H259.502V26.4863H263.38C264.164 26.4863 264.826 26.6216 265.368 26.8923C265.909 27.1629 266.315 27.5363 266.586 28.0123C266.856 28.4883 266.992 29.0343 266.992 29.6503ZM263.198 30.8823C263.655 30.8823 263.996 30.7749 264.22 30.5603C264.444 30.3456 264.556 30.0423 264.556 29.6503C264.556 29.2583 264.444 28.9549 264.22 28.7403C263.996 28.5256 263.655 28.4183 263.198 28.4183H261.896V30.8823H263.198ZM271.92 26.4863C272.956 26.4863 273.861 26.6916 274.636 27.1023C275.411 27.5129 276.008 28.0916 276.428 28.8383C276.857 29.5756 277.072 30.4296 277.072 31.4003C277.072 32.3616 276.857 33.2156 276.428 33.9623C276.008 34.7089 275.406 35.2876 274.622 35.6983C273.847 36.1089 272.947 36.3143 271.92 36.3143H268.238V26.4863H271.92ZM271.766 34.2423C272.671 34.2423 273.376 33.9949 273.88 33.5003C274.384 33.0056 274.636 32.3056 274.636 31.4003C274.636 30.4949 274.384 29.7903 273.88 29.2863C273.376 28.7823 272.671 28.5303 271.766 28.5303H270.632V34.2423H271.766ZM284.528 34.5783H280.86L280.272 36.3143H277.766L281.322 26.4863H284.094L287.65 36.3143H285.116L284.528 34.5783ZM283.912 32.7303L282.694 29.1323L281.49 32.7303H283.912ZM295.802 26.4863V28.4043H293.198V36.3143H290.804V28.4043H288.2V26.4863H295.802ZM299.398 28.4043V30.3923H302.604V32.2403H299.398V34.3963H303.024V36.3143H297.004V26.4863H303.024V28.4043H299.398ZM308.134 36.4123C307.415 36.4123 306.771 36.2956 306.202 36.0623C305.633 35.8289 305.175 35.4836 304.83 35.0263C304.494 34.5689 304.317 34.0183 304.298 33.3743H306.846C306.883 33.7383 307.009 34.0183 307.224 34.2143C307.439 34.4009 307.719 34.4943 308.064 34.4943C308.419 34.4943 308.699 34.4149 308.904 34.2563C309.109 34.0883 309.212 33.8596 309.212 33.5703C309.212 33.3276 309.128 33.1269 308.96 32.9683C308.801 32.8096 308.601 32.6789 308.358 32.5763C308.125 32.4736 307.789 32.3569 307.35 32.2263C306.715 32.0303 306.197 31.8343 305.796 31.6383C305.395 31.4423 305.049 31.1529 304.76 30.7703C304.471 30.3876 304.326 29.8883 304.326 29.2723C304.326 28.3576 304.657 27.6436 305.32 27.1303C305.983 26.6076 306.846 26.3463 307.91 26.3463C308.993 26.3463 309.865 26.6076 310.528 27.1303C311.191 27.6436 311.545 28.3623 311.592 29.2863H309.002C308.983 28.9689 308.867 28.7216 308.652 28.5443C308.437 28.3576 308.162 28.2643 307.826 28.2643C307.537 28.2643 307.303 28.3436 307.126 28.5023C306.949 28.6516 306.86 28.8709 306.86 29.1603C306.86 29.4776 307.009 29.7249 307.308 29.9023C307.607 30.0796 308.073 30.2709 308.708 30.4763C309.343 30.6909 309.856 30.8963 310.248 31.0923C310.649 31.2883 310.995 31.5729 311.284 31.9463C311.573 32.3196 311.718 32.8003 311.718 33.3883C311.718 33.9483 311.573 34.4569 311.284 34.9143C311.004 35.3716 310.593 35.7356 310.052 36.0063C309.511 36.2769 308.871 36.4123 308.134 36.4123Z" fill="white"/>
<path d="M99.0694 44.6473V52.3143H98.0684V48.8383H94.1634V52.3143H93.1624V44.6473H94.1634V48.0133H98.0684V44.6473H99.0694ZM100.405 49.2783C100.405 48.6623 100.529 48.1233 100.779 47.6613C101.028 47.1919 101.369 46.8289 101.802 46.5723C102.242 46.3156 102.729 46.1873 103.265 46.1873C103.793 46.1873 104.251 46.3009 104.64 46.5283C105.028 46.7556 105.318 47.0416 105.509 47.3863V46.2863H106.521V52.3143H105.509V51.1923C105.311 51.5443 105.014 51.8376 104.618 52.0723C104.229 52.2996 103.774 52.4133 103.254 52.4133C102.718 52.4133 102.234 52.2813 101.802 52.0173C101.369 51.7533 101.028 51.3829 100.779 50.9063C100.529 50.4296 100.405 49.8869 100.405 49.2783ZM105.509 49.2893C105.509 48.8346 105.417 48.4386 105.234 48.1013C105.05 47.7639 104.801 47.5073 104.486 47.3313C104.178 47.1479 103.837 47.0563 103.463 47.0563C103.089 47.0563 102.748 47.1443 102.44 47.3203C102.132 47.4963 101.886 47.7529 101.703 48.0903C101.519 48.4276 101.428 48.8236 101.428 49.2783C101.428 49.7403 101.519 50.1436 101.703 50.4883C101.886 50.8256 102.132 51.0859 102.44 51.2693C102.748 51.4453 103.089 51.5333 103.463 51.5333C103.837 51.5333 104.178 51.4453 104.486 51.2693C104.801 51.0859 105.05 50.8256 105.234 50.4883C105.417 50.1436 105.509 49.7439 105.509 49.2893ZM110.456 51.3903L112.326 46.2863H113.393L111.028 52.3143H109.862L107.497 46.2863H108.575L110.456 51.3903ZM119.878 49.0693C119.878 49.2599 119.867 49.4616 119.845 49.6743H115.027C115.064 50.2683 115.266 50.7339 115.632 51.0713C116.006 51.4013 116.457 51.5663 116.985 51.5663C117.418 51.5663 117.777 51.4673 118.063 51.2693C118.357 51.0639 118.562 50.7926 118.679 50.4553H119.757C119.596 51.0346 119.273 51.5076 118.789 51.8743C118.305 52.2336 117.704 52.4133 116.985 52.4133C116.413 52.4133 115.9 52.2849 115.445 52.0283C114.998 51.7716 114.646 51.4086 114.389 50.9393C114.133 50.4626 114.004 49.9126 114.004 49.2893C114.004 48.6659 114.129 48.1196 114.378 47.6503C114.628 47.1809 114.976 46.8216 115.423 46.5723C115.878 46.3156 116.399 46.1873 116.985 46.1873C117.557 46.1873 118.063 46.3119 118.503 46.5613C118.943 46.8106 119.281 47.1553 119.515 47.5953C119.757 48.0279 119.878 48.5193 119.878 49.0693ZM118.844 48.8603C118.844 48.4789 118.76 48.1526 118.591 47.8813C118.423 47.6026 118.192 47.3936 117.898 47.2543C117.612 47.1076 117.293 47.0343 116.941 47.0343C116.435 47.0343 116.003 47.1956 115.643 47.5183C115.291 47.8409 115.09 48.2883 115.038 48.8603H118.844ZM123.758 49.2783C123.758 48.6623 123.883 48.1233 124.132 47.6613C124.381 47.1919 124.722 46.8289 125.155 46.5723C125.595 46.3156 126.086 46.1873 126.629 46.1873C127.15 46.1873 127.604 46.3046 127.993 46.5393C128.389 46.7666 128.679 47.0489 128.862 47.3863V46.2863H129.874V55.1743H128.862V51.2033C128.671 51.5406 128.378 51.8266 127.982 52.0613C127.586 52.2959 127.124 52.4133 126.596 52.4133C126.068 52.4133 125.588 52.2813 125.155 52.0173C124.722 51.7533 124.381 51.3829 124.132 50.9063C123.883 50.4296 123.758 49.8869 123.758 49.2783ZM128.862 49.2893C128.862 48.8346 128.77 48.4386 128.587 48.1013C128.404 47.7639 128.154 47.5073 127.839 47.3313C127.531 47.1479 127.19 47.0563 126.816 47.0563C126.442 47.0563 126.101 47.1443 125.793 47.3203C125.485 47.4963 125.239 47.7529 125.056 48.0903C124.873 48.4276 124.781 48.8236 124.781 49.2783C124.781 49.7403 124.873 50.1436 125.056 50.4883C125.239 50.8256 125.485 51.0859 125.793 51.2693C126.101 51.4453 126.442 51.5333 126.816 51.5333C127.19 51.5333 127.531 51.4453 127.839 51.2693C128.154 51.0859 128.404 50.8256 128.587 50.4883C128.77 50.1436 128.862 49.7439 128.862 49.2893ZM136.912 46.2863V52.3143H135.911V51.4233C135.72 51.7313 135.452 51.9733 135.108 52.1493C134.77 52.3179 134.396 52.4023 133.986 52.4023C133.516 52.4023 133.095 52.3069 132.721 52.1163C132.347 51.9183 132.05 51.6249 131.83 51.2363C131.617 50.8476 131.511 50.3746 131.511 49.8173V46.2863H132.501V49.6853C132.501 50.2793 132.651 50.7376 132.952 51.0603C133.252 51.3756 133.663 51.5333 134.184 51.5333C134.719 51.5333 135.141 51.3683 135.449 51.0383C135.757 50.7083 135.911 50.2279 135.911 49.5973V46.2863H136.912ZM144.102 49.0693C144.102 49.2599 144.091 49.4616 144.069 49.6743H139.251C139.288 50.2683 139.489 50.7339 139.856 51.0713C140.23 51.4013 140.681 51.5663 141.209 51.5663C141.642 51.5663 142.001 51.4673 142.287 51.2693C142.58 51.0639 142.786 50.7926 142.903 50.4553H143.981C143.82 51.0346 143.497 51.5076 143.013 51.8743C142.529 52.2336 141.928 52.4133 141.209 52.4133C140.637 52.4133 140.124 52.2849 139.669 52.0283C139.222 51.7716 138.87 51.4086 138.613 50.9393C138.356 50.4626 138.228 49.9126 138.228 49.2893C138.228 48.6659 138.353 48.1196 138.602 47.6503C138.851 47.1809 139.2 46.8216 139.647 46.5723C140.102 46.3156 140.622 46.1873 141.209 46.1873C141.781 46.1873 142.287 46.3119 142.727 46.5613C143.167 46.8106 143.504 47.1553 143.739 47.5953C143.981 48.0279 144.102 48.5193 144.102 49.0693ZM143.068 48.8603C143.068 48.4789 142.984 48.1526 142.815 47.8813C142.646 47.6026 142.415 47.3936 142.122 47.2543C141.836 47.1076 141.517 47.0343 141.165 47.0343C140.659 47.0343 140.226 47.1956 139.867 47.5183C139.515 47.8409 139.313 48.2883 139.262 48.8603H143.068ZM147.557 52.4133C147.095 52.4133 146.681 52.3363 146.314 52.1823C145.948 52.0209 145.658 51.8009 145.445 51.5223C145.233 51.2363 145.115 50.9099 145.093 50.5433H146.127C146.157 50.8439 146.296 51.0896 146.545 51.2803C146.802 51.4709 147.136 51.5663 147.546 51.5663C147.928 51.5663 148.228 51.4819 148.448 51.3133C148.668 51.1446 148.778 50.9319 148.778 50.6753C148.778 50.4113 148.661 50.2169 148.426 50.0923C148.192 49.9603 147.829 49.8319 147.337 49.7073C146.89 49.5899 146.523 49.4726 146.237 49.3553C145.959 49.2306 145.717 49.0509 145.511 48.8163C145.313 48.5743 145.214 48.2589 145.214 47.8703C145.214 47.5623 145.306 47.2799 145.489 47.0233C145.673 46.7666 145.933 46.5649 146.27 46.4183C146.608 46.2643 146.993 46.1873 147.425 46.1873C148.093 46.1873 148.632 46.3559 149.042 46.6933C149.453 47.0306 149.673 47.4926 149.702 48.0793H148.701C148.679 47.7639 148.551 47.5109 148.316 47.3203C148.089 47.1296 147.781 47.0343 147.392 47.0343C147.033 47.0343 146.747 47.1113 146.534 47.2653C146.322 47.4193 146.215 47.6209 146.215 47.8703C146.215 48.0683 146.278 48.2333 146.402 48.3653C146.534 48.4899 146.696 48.5926 146.886 48.6733C147.084 48.7466 147.356 48.8309 147.7 48.9263C148.133 49.0436 148.485 49.1609 148.756 49.2783C149.028 49.3883 149.259 49.5569 149.449 49.7843C149.647 50.0116 149.75 50.3086 149.757 50.6753C149.757 51.0053 149.666 51.3023 149.482 51.5663C149.299 51.8303 149.039 52.0393 148.701 52.1933C148.371 52.3399 147.99 52.4133 147.557 52.4133ZM152.391 47.1113V50.6643C152.391 50.9576 152.454 51.1666 152.578 51.2913C152.703 51.4086 152.919 51.4673 153.227 51.4673H153.964V52.3143H153.062C152.505 52.3143 152.087 52.1859 151.808 51.9293C151.53 51.6726 151.39 51.2509 151.39 50.6643V47.1113H150.609V46.2863H151.39V44.7683H152.391V46.2863H153.964V47.1113H152.391ZM155.694 45.3073C155.503 45.3073 155.342 45.2413 155.21 45.1093C155.078 44.9773 155.012 44.8159 155.012 44.6253C155.012 44.4346 155.078 44.2733 155.21 44.1413C155.342 44.0093 155.503 43.9433 155.694 43.9433C155.877 43.9433 156.031 44.0093 156.156 44.1413C156.288 44.2733 156.354 44.4346 156.354 44.6253C156.354 44.8159 156.288 44.9773 156.156 45.1093C156.031 45.2413 155.877 45.3073 155.694 45.3073ZM156.178 46.2863V52.3143H155.177V46.2863H156.178ZM160.513 52.4133C159.948 52.4133 159.435 52.2849 158.973 52.0283C158.518 51.7716 158.159 51.4086 157.895 50.9393C157.638 50.4626 157.51 49.9126 157.51 49.2893C157.51 48.6733 157.642 48.1306 157.906 47.6613C158.177 47.1846 158.544 46.8216 159.006 46.5723C159.468 46.3156 159.985 46.1873 160.557 46.1873C161.129 46.1873 161.646 46.3156 162.108 46.5723C162.57 46.8216 162.933 47.1809 163.197 47.6503C163.468 48.1196 163.604 48.6659 163.604 49.2893C163.604 49.9126 163.465 50.4626 163.186 50.9393C162.915 51.4086 162.544 51.7716 162.075 52.0283C161.606 52.2849 161.085 52.4133 160.513 52.4133ZM160.513 51.5333C160.872 51.5333 161.21 51.4489 161.525 51.2803C161.84 51.1116 162.093 50.8586 162.284 50.5213C162.482 50.1839 162.581 49.7733 162.581 49.2893C162.581 48.8053 162.486 48.3946 162.295 48.0573C162.104 47.7199 161.855 47.4706 161.547 47.3093C161.239 47.1406 160.905 47.0563 160.546 47.0563C160.179 47.0563 159.842 47.1406 159.534 47.3093C159.233 47.4706 158.991 47.7199 158.808 48.0573C158.625 48.3946 158.533 48.8053 158.533 49.2893C158.533 49.7806 158.621 50.1949 158.797 50.5323C158.98 50.8696 159.222 51.1226 159.523 51.2913C159.824 51.4526 160.154 51.5333 160.513 51.5333ZM167.857 46.1763C168.591 46.1763 169.185 46.3999 169.639 46.8473C170.094 47.2873 170.321 47.9253 170.321 48.7613V52.3143H169.331V48.9043C169.331 48.3029 169.181 47.8446 168.88 47.5293C168.58 47.2066 168.169 47.0453 167.648 47.0453C167.12 47.0453 166.699 47.2103 166.383 47.5403C166.075 47.8703 165.921 48.3506 165.921 48.9813V52.3143H164.92V46.2863H165.921V47.1443C166.119 46.8363 166.387 46.5979 166.724 46.4293C167.069 46.2606 167.447 46.1763 167.857 46.1763ZM174.09 52.4133C173.628 52.4133 173.214 52.3363 172.847 52.1823C172.481 52.0209 172.191 51.8009 171.978 51.5223C171.766 51.2363 171.648 50.9099 171.626 50.5433H172.66C172.69 50.8439 172.829 51.0896 173.078 51.2803C173.335 51.4709 173.669 51.5663 174.079 51.5663C174.461 51.5663 174.761 51.4819 174.981 51.3133C175.201 51.1446 175.311 50.9319 175.311 50.6753C175.311 50.4113 175.194 50.2169 174.959 50.0923C174.725 49.9603 174.362 49.8319 173.87 49.7073C173.423 49.5899 173.056 49.4726 172.77 49.3553C172.492 49.2306 172.25 49.0509 172.044 48.8163C171.846 48.5743 171.747 48.2589 171.747 47.8703C171.747 47.5623 171.839 47.2799 172.022 47.0233C172.206 46.7666 172.466 46.5649 172.803 46.4183C173.141 46.2643 173.526 46.1873 173.958 46.1873C174.626 46.1873 175.165 46.3559 175.575 46.6933C175.986 47.0306 176.206 47.4926 176.235 48.0793H175.234C175.212 47.7639 175.084 47.5109 174.849 47.3203C174.622 47.1296 174.314 47.0343 173.925 47.0343C173.566 47.0343 173.28 47.1113 173.067 47.2653C172.855 47.4193 172.748 47.6209 172.748 47.8703C172.748 48.0683 172.811 48.2333 172.935 48.3653C173.067 48.4899 173.229 48.5926 173.419 48.6733C173.617 48.7466 173.889 48.8309 174.233 48.9263C174.666 49.0436 175.018 49.1609 175.289 49.2783C175.561 49.3883 175.792 49.5569 175.982 49.7843C176.18 50.0116 176.283 50.3086 176.29 50.6753C176.29 51.0053 176.199 51.3023 176.015 51.5663C175.832 51.8303 175.572 52.0393 175.234 52.1933C174.904 52.3399 174.523 52.4133 174.09 52.4133ZM183.265 52.4133C182.7 52.4133 182.187 52.2849 181.725 52.0283C181.27 51.7716 180.911 51.4086 180.647 50.9393C180.39 50.4626 180.262 49.9126 180.262 49.2893C180.262 48.6733 180.394 48.1306 180.658 47.6613C180.929 47.1846 181.296 46.8216 181.758 46.5723C182.22 46.3156 182.737 46.1873 183.309 46.1873C183.881 46.1873 184.398 46.3156 184.86 46.5723C185.322 46.8216 185.685 47.1809 185.949 47.6503C186.22 48.1196 186.356 48.6659 186.356 49.2893C186.356 49.9126 186.217 50.4626 185.938 50.9393C185.667 51.4086 185.296 51.7716 184.827 52.0283C184.358 52.2849 183.837 52.4133 183.265 52.4133ZM183.265 51.5333C183.624 51.5333 183.962 51.4489 184.277 51.2803C184.592 51.1116 184.845 50.8586 185.036 50.5213C185.234 50.1839 185.333 49.7733 185.333 49.2893C185.333 48.8053 185.238 48.3946 185.047 48.0573C184.856 47.7199 184.607 47.4706 184.299 47.3093C183.991 47.1406 183.657 47.0563 183.298 47.0563C182.931 47.0563 182.594 47.1406 182.286 47.3093C181.985 47.4706 181.743 47.7199 181.56 48.0573C181.377 48.3946 181.285 48.8053 181.285 49.2893C181.285 49.7806 181.373 50.1949 181.549 50.5323C181.732 50.8696 181.974 51.1226 182.275 51.2913C182.576 51.4526 182.906 51.5333 183.265 51.5333ZM188.673 47.2653C188.849 46.9206 189.099 46.6529 189.421 46.4623C189.751 46.2716 190.151 46.1763 190.62 46.1763V47.2103H190.356C189.234 47.2103 188.673 47.8189 188.673 49.0363V52.3143H187.672V46.2863H188.673V47.2653ZM196.842 52.4133C196.38 52.4133 195.966 52.3363 195.599 52.1823C195.233 52.0209 194.943 51.8009 194.73 51.5223C194.518 51.2363 194.4 50.9099 194.378 50.5433H195.412C195.442 50.8439 195.581 51.0896 195.83 51.2803C196.087 51.4709 196.421 51.5663 196.831 51.5663C197.213 51.5663 197.513 51.4819 197.733 51.3133C197.953 51.1446 198.063 50.9319 198.063 50.6753C198.063 50.4113 197.946 50.2169 197.711 50.0923C197.477 49.9603 197.114 49.8319 196.622 49.7073C196.175 49.5899 195.808 49.4726 195.522 49.3553C195.244 49.2306 195.002 49.0509 194.796 48.8163C194.598 48.5743 194.499 48.2589 194.499 47.8703C194.499 47.5623 194.591 47.2799 194.774 47.0233C194.958 46.7666 195.218 46.5649 195.555 46.4183C195.893 46.2643 196.278 46.1873 196.71 46.1873C197.378 46.1873 197.917 46.3559 198.327 46.6933C198.738 47.0306 198.958 47.4926 198.987 48.0793H197.986C197.964 47.7639 197.836 47.5109 197.601 47.3203C197.374 47.1296 197.066 47.0343 196.677 47.0343C196.318 47.0343 196.032 47.1113 195.819 47.2653C195.607 47.4193 195.5 47.6209 195.5 47.8703C195.5 48.0683 195.563 48.2333 195.687 48.3653C195.819 48.4899 195.981 48.5926 196.171 48.6733C196.369 48.7466 196.641 48.8309 196.985 48.9263C197.418 49.0436 197.77 49.1609 198.041 49.2783C198.313 49.3883 198.544 49.5569 198.734 49.7843C198.932 50.0116 199.035 50.3086 199.042 50.6753C199.042 51.0053 198.951 51.3023 198.767 51.5663C198.584 51.8303 198.324 52.0393 197.986 52.1933C197.656 52.3399 197.275 52.4133 196.842 52.4133ZM205.801 46.2863V52.3143H204.8V51.4233C204.61 51.7313 204.342 51.9733 203.997 52.1493C203.66 52.3179 203.286 52.4023 202.875 52.4023C202.406 52.4023 201.984 52.3069 201.61 52.1163C201.236 51.9183 200.939 51.6249 200.719 51.2363C200.507 50.8476 200.4 50.3746 200.4 49.8173V46.2863H201.39V49.6853C201.39 50.2793 201.541 50.7376 201.841 51.0603C202.142 51.3756 202.553 51.5333 203.073 51.5333C203.609 51.5333 204.03 51.3683 204.338 51.0383C204.646 50.7083 204.8 50.2279 204.8 49.5973V46.2863H205.801ZM209.978 46.1873C210.498 46.1873 210.953 46.3009 211.342 46.5283C211.738 46.7556 212.031 47.0416 212.222 47.3863V46.2863H213.234V52.4463C213.234 52.9963 213.116 53.4839 212.882 53.9093C212.647 54.3419 212.31 54.6793 211.87 54.9213C211.437 55.1633 210.931 55.2843 210.352 55.2843C209.56 55.2843 208.9 55.0973 208.372 54.7233C207.844 54.3493 207.532 53.8396 207.437 53.1943H208.427C208.537 53.5609 208.764 53.8543 209.109 54.0743C209.453 54.3016 209.868 54.4153 210.352 54.4153C210.902 54.4153 211.349 54.2429 211.694 53.8983C212.046 53.5536 212.222 53.0696 212.222 52.4463V51.1813C212.024 51.5333 211.73 51.8266 211.342 52.0613C210.953 52.2959 210.498 52.4133 209.978 52.4133C209.442 52.4133 208.955 52.2813 208.515 52.0173C208.082 51.7533 207.741 51.3829 207.492 50.9063C207.242 50.4296 207.118 49.8869 207.118 49.2783C207.118 48.6623 207.242 48.1233 207.492 47.6613C207.741 47.1919 208.082 46.8289 208.515 46.5723C208.955 46.3156 209.442 46.1873 209.978 46.1873ZM212.222 49.2893C212.222 48.8346 212.13 48.4386 211.947 48.1013C211.763 47.7639 211.514 47.5073 211.199 47.3313C210.891 47.1479 210.55 47.0563 210.176 47.0563C209.802 47.0563 209.461 47.1443 209.153 47.3203C208.845 47.4963 208.599 47.7529 208.416 48.0903C208.232 48.4276 208.141 48.8236 208.141 49.2783C208.141 49.7403 208.232 50.1436 208.416 50.4883C208.599 50.8256 208.845 51.0859 209.153 51.2693C209.461 51.4453 209.802 51.5333 210.176 51.5333C210.55 51.5333 210.891 51.4453 211.199 51.2693C211.514 51.0859 211.763 50.8256 211.947 50.4883C212.13 50.1436 212.222 49.7439 212.222 49.2893ZM217.411 46.1873C217.932 46.1873 218.386 46.3009 218.775 46.5283C219.171 46.7556 219.464 47.0416 219.655 47.3863V46.2863H220.667V52.4463C220.667 52.9963 220.55 53.4839 220.315 53.9093C220.08 54.3419 219.743 54.6793 219.303 54.9213C218.87 55.1633 218.364 55.2843 217.785 55.2843C216.993 55.2843 216.333 55.0973 215.805 54.7233C215.277 54.3493 214.965 53.8396 214.87 53.1943H215.86C215.97 53.5609 216.197 53.8543 216.542 54.0743C216.887 54.3016 217.301 54.4153 217.785 54.4153C218.335 54.4153 218.782 54.2429 219.127 53.8983C219.479 53.5536 219.655 53.0696 219.655 52.4463V51.1813C219.457 51.5333 219.164 51.8266 218.775 52.0613C218.386 52.2959 217.932 52.4133 217.411 52.4133C216.876 52.4133 216.388 52.2813 215.948 52.0173C215.515 51.7533 215.174 51.3829 214.925 50.9063C214.676 50.4296 214.551 49.8869 214.551 49.2783C214.551 48.6623 214.676 48.1233 214.925 47.6613C215.174 47.1919 215.515 46.8289 215.948 46.5723C216.388 46.3156 216.876 46.1873 217.411 46.1873ZM219.655 49.2893C219.655 48.8346 219.563 48.4386 219.38 48.1013C219.197 47.7639 218.947 47.5073 218.632 47.3313C218.324 47.1479 217.983 47.0563 217.609 47.0563C217.235 47.0563 216.894 47.1443 216.586 47.3203C216.278 47.4963 216.032 47.7529 215.849 48.0903C215.666 48.4276 215.574 48.8236 215.574 49.2783C215.574 49.7403 215.666 50.1436 215.849 50.4883C216.032 50.8256 216.278 51.0859 216.586 51.2693C216.894 51.4453 217.235 51.5333 217.609 51.5333C217.983 51.5333 218.324 51.4453 218.632 51.2693C218.947 51.0859 219.197 50.8256 219.38 50.4883C219.563 50.1436 219.655 49.7439 219.655 49.2893ZM227.859 49.0693C227.859 49.2599 227.848 49.4616 227.826 49.6743H223.008C223.044 50.2683 223.246 50.7339 223.613 51.0713C223.987 51.4013 224.438 51.5663 224.966 51.5663C225.398 51.5663 225.758 51.4673 226.044 51.2693C226.337 51.0639 226.542 50.7926 226.66 50.4553H227.738C227.576 51.0346 227.254 51.5076 226.77 51.8743C226.286 52.2336 225.684 52.4133 224.966 52.4133C224.394 52.4133 223.88 52.2849 223.426 52.0283C222.978 51.7716 222.626 51.4086 222.37 50.9393C222.113 50.4626 221.985 49.9126 221.985 49.2893C221.985 48.6659 222.109 48.1196 222.359 47.6503C222.608 47.1809 222.956 46.8216 223.404 46.5723C223.858 46.3156 224.379 46.1873 224.966 46.1873C225.538 46.1873 226.044 46.3119 226.484 46.5613C226.924 46.8106 227.261 47.1553 227.496 47.5953C227.738 48.0279 227.859 48.5193 227.859 49.0693ZM226.825 48.8603C226.825 48.4789 226.74 48.1526 226.572 47.8813C226.403 47.6026 226.172 47.3936 225.879 47.2543C225.593 47.1076 225.274 47.0343 224.922 47.0343C224.416 47.0343 223.983 47.1956 223.624 47.5183C223.272 47.8409 223.07 48.2883 223.019 48.8603H226.825ZM231.314 52.4133C230.852 52.4133 230.438 52.3363 230.071 52.1823C229.704 52.0209 229.415 51.8009 229.202 51.5223C228.989 51.2363 228.872 50.9099 228.85 50.5433H229.884C229.913 50.8439 230.053 51.0896 230.302 51.2803C230.559 51.4709 230.892 51.5663 231.303 51.5663C231.684 51.5663 231.985 51.4819 232.205 51.3133C232.425 51.1446 232.535 50.9319 232.535 50.6753C232.535 50.4113 232.418 50.2169 232.183 50.0923C231.948 49.9603 231.585 49.8319 231.094 49.7073C230.647 49.5899 230.28 49.4726 229.994 49.3553C229.715 49.2306 229.473 49.0509 229.268 48.8163C229.07 48.5743 228.971 48.2589 228.971 47.8703C228.971 47.5623 229.063 47.2799 229.246 47.0233C229.429 46.7666 229.69 46.5649 230.027 46.4183C230.364 46.2643 230.749 46.1873 231.182 46.1873C231.849 46.1873 232.388 46.3559 232.799 46.6933C233.21 47.0306 233.43 47.4926 233.459 48.0793H232.458C232.436 47.7639 232.308 47.5109 232.073 47.3203C231.846 47.1296 231.538 47.0343 231.149 47.0343C230.79 47.0343 230.504 47.1113 230.291 47.2653C230.078 47.4193 229.972 47.6209 229.972 47.8703C229.972 48.0683 230.034 48.2333 230.159 48.3653C230.291 48.4899 230.452 48.5926 230.643 48.6733C230.841 48.7466 231.112 48.8309 231.457 48.9263C231.89 49.0436 232.242 49.1609 232.513 49.2783C232.784 49.3883 233.015 49.5569 233.206 49.7843C233.404 50.0116 233.507 50.3086 233.514 50.6753C233.514 51.0053 233.422 51.3023 233.239 51.5663C233.056 51.8303 232.795 52.0393 232.458 52.1933C232.128 52.3399 231.747 52.4133 231.314 52.4133ZM236.148 47.1113V50.6643C236.148 50.9576 236.21 51.1666 236.335 51.2913C236.46 51.4086 236.676 51.4673 236.984 51.4673H237.721V52.3143H236.819C236.262 52.3143 235.844 52.1859 235.565 51.9293C235.286 51.6726 235.147 51.2509 235.147 50.6643V47.1113H234.366V46.2863H235.147V44.7683H236.148V46.2863H237.721V47.1113H236.148ZM239.451 45.3073C239.26 45.3073 239.099 45.2413 238.967 45.1093C238.835 44.9773 238.769 44.8159 238.769 44.6253C238.769 44.4346 238.835 44.2733 238.967 44.1413C239.099 44.0093 239.26 43.9433 239.451 43.9433C239.634 43.9433 239.788 44.0093 239.913 44.1413C240.045 44.2733 240.111 44.4346 240.111 44.6253C240.111 44.8159 240.045 44.9773 239.913 45.1093C239.788 45.2413 239.634 45.3073 239.451 45.3073ZM239.935 46.2863V52.3143H238.934V46.2863H239.935ZM244.27 52.4133C243.705 52.4133 243.192 52.2849 242.73 52.0283C242.275 51.7716 241.916 51.4086 241.652 50.9393C241.395 50.4626 241.267 49.9126 241.267 49.2893C241.267 48.6733 241.399 48.1306 241.663 47.6613C241.934 47.1846 242.301 46.8216 242.763 46.5723C243.225 46.3156 243.742 46.1873 244.314 46.1873C244.886 46.1873 245.403 46.3156 245.865 46.5723C246.327 46.8216 246.69 47.1809 246.954 47.6503C247.225 48.1196 247.361 48.6659 247.361 49.2893C247.361 49.9126 247.222 50.4626 246.943 50.9393C246.672 51.4086 246.301 51.7716 245.832 52.0283C245.363 52.2849 244.842 52.4133 244.27 52.4133ZM244.27 51.5333C244.629 51.5333 244.967 51.4489 245.282 51.2803C245.597 51.1116 245.85 50.8586 246.041 50.5213C246.239 50.1839 246.338 49.7733 246.338 49.2893C246.338 48.8053 246.243 48.3946 246.052 48.0573C245.861 47.7199 245.612 47.4706 245.304 47.3093C244.996 47.1406 244.662 47.0563 244.303 47.0563C243.936 47.0563 243.599 47.1406 243.291 47.3093C242.99 47.4706 242.748 47.7199 242.565 48.0573C242.382 48.3946 242.29 48.8053 242.29 49.2893C242.29 49.7806 242.378 50.1949 242.554 50.5323C242.737 50.8696 242.979 51.1226 243.28 51.2913C243.581 51.4526 243.911 51.5333 244.27 51.5333ZM251.614 46.1763C252.347 46.1763 252.941 46.3999 253.396 46.8473C253.851 47.2873 254.078 47.9253 254.078 48.7613V52.3143H253.088V48.9043C253.088 48.3029 252.938 47.8446 252.637 47.5293C252.336 47.2066 251.926 47.0453 251.405 47.0453C250.877 47.0453 250.455 47.2103 250.14 47.5403C249.832 47.8703 249.678 48.3506 249.678 48.9813V52.3143H248.677V46.2863H249.678V47.1443C249.876 46.8363 250.144 46.5979 250.481 46.4293C250.826 46.2606 251.203 46.1763 251.614 46.1763ZM257.847 52.4133C257.385 52.4133 256.971 52.3363 256.604 52.1823C256.238 52.0209 255.948 51.8009 255.735 51.5223C255.523 51.2363 255.405 50.9099 255.383 50.5433H256.417C256.447 50.8439 256.586 51.0896 256.835 51.2803C257.092 51.4709 257.426 51.5663 257.836 51.5663C258.218 51.5663 258.518 51.4819 258.738 51.3133C258.958 51.1446 259.068 50.9319 259.068 50.6753C259.068 50.4113 258.951 50.2169 258.716 50.0923C258.482 49.9603 258.119 49.8319 257.627 49.7073C257.18 49.5899 256.813 49.4726 256.527 49.3553C256.249 49.2306 256.007 49.0509 255.801 48.8163C255.603 48.5743 255.504 48.2589 255.504 47.8703C255.504 47.5623 255.596 47.2799 255.779 47.0233C255.963 46.7666 256.223 46.5649 256.56 46.4183C256.898 46.2643 257.283 46.1873 257.715 46.1873C258.383 46.1873 258.922 46.3559 259.332 46.6933C259.743 47.0306 259.963 47.4926 259.992 48.0793H258.991C258.969 47.7639 258.841 47.5109 258.606 47.3203C258.379 47.1296 258.071 47.0343 257.682 47.0343C257.323 47.0343 257.037 47.1113 256.824 47.2653C256.612 47.4193 256.505 47.6209 256.505 47.8703C256.505 48.0683 256.568 48.2333 256.692 48.3653C256.824 48.4899 256.986 48.5926 257.176 48.6733C257.374 48.7466 257.646 48.8309 257.99 48.9263C258.423 49.0436 258.775 49.1609 259.046 49.2783C259.318 49.3883 259.549 49.5569 259.739 49.7843C259.937 50.0116 260.04 50.3086 260.047 50.6753C260.047 51.0053 259.956 51.3023 259.772 51.5663C259.589 51.8303 259.329 52.0393 258.991 52.1933C258.661 52.3399 258.28 52.4133 257.847 52.4133ZM263.418 44.5483C264.144 44.5483 264.731 44.7536 265.178 45.1643C265.626 45.5749 265.849 46.1249 265.849 46.8143C265.849 47.5843 265.611 48.1563 265.134 48.5303C264.658 48.8969 264.012 49.0803 263.198 49.0803L263.165 50.1253H262.296L262.252 48.3873H262.571C263.297 48.3873 263.866 48.2773 264.276 48.0573C264.687 47.8373 264.892 47.4229 264.892 46.8143C264.892 46.3743 264.76 46.0259 264.496 45.7693C264.232 45.5126 263.877 45.3843 263.429 45.3843C262.975 45.3843 262.615 45.5089 262.351 45.7583C262.095 46.0003 261.966 46.3339 261.966 46.7593H261.02C261.02 46.3193 261.119 45.9343 261.317 45.6043C261.515 45.2669 261.794 45.0066 262.153 44.8233C262.52 44.6399 262.942 44.5483 263.418 44.5483ZM262.725 52.3803C262.535 52.3803 262.373 52.3143 262.241 52.1823C262.109 52.0503 262.043 51.8889 262.043 51.6983C262.043 51.5076 262.109 51.3463 262.241 51.2143C262.373 51.0823 262.535 51.0163 262.725 51.0163C262.909 51.0163 263.063 51.0823 263.187 51.2143C263.319 51.3463 263.385 51.5076 263.385 51.6983C263.385 51.8889 263.319 52.0503 263.187 52.1823C263.063 52.3143 262.909 52.3803 262.725 52.3803ZM272.548 44.6473C273.384 44.6473 274.107 44.8049 274.715 45.1203C275.331 45.4283 275.801 45.8719 276.123 46.4513C276.453 47.0306 276.618 47.7126 276.618 48.4973C276.618 49.2819 276.453 49.9639 276.123 50.5433C275.801 51.1153 275.331 51.5553 274.715 51.8633C274.107 52.1639 273.384 52.3143 272.548 52.3143H270.161V44.6473H272.548ZM272.548 51.4893C273.538 51.4893 274.294 51.2289 274.814 50.7083C275.335 50.1803 275.595 49.4433 275.595 48.4973C275.595 47.5439 275.331 46.7996 274.803 46.2643C274.283 45.7289 273.531 45.4613 272.548 45.4613H271.162V51.4893H272.548ZM285.716 44.7023V52.3143H284.715V46.6383L282.185 52.3143H281.481L278.94 46.6273V52.3143H277.939V44.7023H279.017L281.833 50.9943L284.649 44.7023H285.716ZM295.692 46.2863V52.3143H294.691V51.4233C294.5 51.7313 294.233 51.9733 293.888 52.1493C293.551 52.3179 293.177 52.4023 292.766 52.4023C292.297 52.4023 291.875 52.3069 291.501 52.1163C291.127 51.9183 290.83 51.6249 290.61 51.2363C290.397 50.8476 290.291 50.3746 290.291 49.8173V46.2863H291.281V49.6853C291.281 50.2793 291.431 50.7376 291.732 51.0603C292.033 51.3756 292.443 51.5333 292.964 51.5333C293.499 51.5333 293.921 51.3683 294.229 51.0383C294.537 50.7083 294.691 50.2279 294.691 49.5973V46.2863H295.692ZM299.516 52.4133C299.054 52.4133 298.64 52.3363 298.273 52.1823C297.906 52.0209 297.617 51.8009 297.404 51.5223C297.191 51.2363 297.074 50.9099 297.052 50.5433H298.086C298.115 50.8439 298.255 51.0896 298.504 51.2803C298.761 51.4709 299.094 51.5663 299.505 51.5663C299.886 51.5663 300.187 51.4819 300.407 51.3133C300.627 51.1446 300.737 50.9319 300.737 50.6753C300.737 50.4113 300.62 50.2169 300.385 50.0923C300.15 49.9603 299.787 49.8319 299.296 49.7073C298.849 49.5899 298.482 49.4726 298.196 49.3553C297.917 49.2306 297.675 49.0509 297.47 48.8163C297.272 48.5743 297.173 48.2589 297.173 47.8703C297.173 47.5623 297.265 47.2799 297.448 47.0233C297.631 46.7666 297.892 46.5649 298.229 46.4183C298.566 46.2643 298.951 46.1873 299.384 46.1873C300.051 46.1873 300.59 46.3559 301.001 46.6933C301.412 47.0306 301.632 47.4926 301.661 48.0793H300.66C300.638 47.7639 300.51 47.5109 300.275 47.3203C300.048 47.1296 299.74 47.0343 299.351 47.0343C298.992 47.0343 298.706 47.1113 298.493 47.2653C298.28 47.4193 298.174 47.6209 298.174 47.8703C298.174 48.0683 298.236 48.2333 298.361 48.3653C298.493 48.4899 298.654 48.5926 298.845 48.6733C299.043 48.7466 299.314 48.8309 299.659 48.9263C300.092 49.0436 300.444 49.1609 300.715 49.2783C300.986 49.3883 301.217 49.5569 301.408 49.7843C301.606 50.0116 301.709 50.3086 301.716 50.6753C301.716 51.0053 301.624 51.3023 301.441 51.5663C301.258 51.8303 300.997 52.0393 300.66 52.1933C300.33 52.3399 299.949 52.4133 299.516 52.4133Z" fill="#B0B0B0"/>
</svg>
