<svg width="270" height="35" viewBox="0 0 270 35" fill="none" xmlns="http://www.w3.org/2000/svg">
<g clip-path="url(#clip0_1202_1637)">
<path d="M9.37533 2.9165H21.6253C26.292 2.9165 30.0837 6.70817 30.0837 11.3748V23.6248C30.0837 25.8681 29.1925 28.0195 27.6063 29.6058C26.02 31.192 23.8686 32.0832 21.6253 32.0832H9.37533C4.70866 32.0832 0.916992 28.2915 0.916992 23.6248V11.3748C0.916992 9.13155 1.80814 6.98014 3.39438 5.39389C4.98063 3.80765 7.13204 2.9165 9.37533 2.9165ZM9.08366 5.83317C7.69127 5.83317 6.35591 6.38629 5.37135 7.37086C4.38678 8.35543 3.83366 9.69078 3.83366 11.0832V23.9165C3.83366 26.8186 6.18158 29.1665 9.08366 29.1665H21.917C23.3094 29.1665 24.6447 28.6134 25.6293 27.6288C26.6139 26.6442 27.167 25.3089 27.167 23.9165V11.0832C27.167 8.18109 24.8191 5.83317 21.917 5.83317H9.08366ZM23.1566 8.02067C23.64 8.02067 24.1037 8.21273 24.4456 8.55459C24.7874 8.89645 24.9795 9.36012 24.9795 9.84359C24.9795 10.3271 24.7874 10.7907 24.4456 11.1326C24.1037 11.4744 23.64 11.6665 23.1566 11.6665C22.6731 11.6665 22.2094 11.4744 21.8676 11.1326C21.5257 10.7907 21.3337 10.3271 21.3337 9.84359C21.3337 9.36012 21.5257 8.89645 21.8676 8.55459C22.2094 8.21273 22.6731 8.02067 23.1566 8.02067ZM15.5003 10.2082C17.4342 10.2082 19.2889 10.9764 20.6563 12.3439C22.0238 13.7113 22.792 15.566 22.792 17.4998C22.792 19.4337 22.0238 21.2884 20.6563 22.6558C19.2889 24.0233 17.4342 24.7915 15.5003 24.7915C13.5665 24.7915 11.7118 24.0233 10.3443 22.6558C8.97689 21.2884 8.20866 19.4337 8.20866 17.4998C8.20866 15.566 8.97689 13.7113 10.3443 12.3439C11.7118 10.9764 13.5665 10.2082 15.5003 10.2082ZM15.5003 13.1248C14.34 13.1248 13.2272 13.5858 12.4067 14.4062C11.5863 15.2267 11.1253 16.3395 11.1253 17.4998C11.1253 18.6602 11.5863 19.773 12.4067 20.5934C13.2272 21.4139 14.34 21.8748 15.5003 21.8748C16.6606 21.8748 17.7734 21.4139 18.5939 20.5934C19.4144 19.773 19.8753 18.6602 19.8753 17.4998C19.8753 16.3395 19.4144 15.2267 18.5939 14.4062C17.7734 13.5858 16.6606 13.1248 15.5003 13.1248Z" fill="white"/>
</g>
<rect x="38.5" y="32" width="29" height="1" rx="0.5" transform="rotate(-90 38.5 32)" fill="white"/>
<path d="M59.1173 6.27V16H57.5213V9.336L54.5533 16H53.4473L50.4653 9.336V16H48.8693V6.27H50.5913L54.0073 13.9L57.4093 6.27H59.1173ZM67.081 14.012H63.007L62.307 16H60.641L64.127 6.256H65.975L69.461 16H67.781L67.081 14.012ZM66.633 12.71L65.051 8.188L63.455 12.71H66.633ZM74.1548 6.27C75.1908 6.27 76.0961 6.47067 76.8708 6.872C77.6548 7.264 78.2568 7.83333 78.6768 8.58C79.1061 9.31733 79.3208 10.1807 79.3208 11.17C79.3208 12.1593 79.1061 13.018 78.6768 13.746C78.2568 14.474 77.6548 15.034 76.8708 15.426C76.0961 15.8087 75.1908 16 74.1548 16H70.9768V6.27H74.1548ZM74.1548 14.698C75.2934 14.698 76.1661 14.39 76.7728 13.774C77.3794 13.158 77.6828 12.29 77.6828 11.17C77.6828 10.0407 77.3794 9.15867 76.7728 8.524C76.1661 7.88933 75.2934 7.572 74.1548 7.572H72.5728V14.698H74.1548ZM82.4985 7.558V10.414H85.8585V11.716H82.4985V14.698H86.2785V16H80.9025V6.256H86.2785V7.558H82.4985ZM104.551 6.27L101.667 16H99.8611L97.8171 8.636L95.6471 16L93.8551 16.014L91.0971 6.27H92.7911L94.8071 14.194L96.9911 6.27H98.7831L100.813 14.152L102.843 6.27H104.551ZM107.463 6.27V16H105.867V6.27H107.463ZM115.845 6.27V7.572H113.255V16H111.659V7.572H109.055V6.27H115.845ZM125.231 6.27V16H123.635V11.744H119.057V16H117.461V6.27H119.057V10.442H123.635V6.27H125.231ZM137.078 16.1591L131.967 11.0483C131.56 10.6406 131.288 10.1667 131.152 9.62642C131.019 9.08617 131.021 8.54924 131.157 8.01562C131.293 7.47869 131.563 7.01136 131.967 6.61364C132.382 6.20597 132.854 5.93584 133.384 5.80327C133.918 5.66738 134.45 5.66738 134.98 5.80327C135.514 5.93916 135.988 6.20928 136.402 6.61364L137.078 7.26989L137.754 6.61364C138.172 6.20928 138.646 5.93916 139.176 5.80327C139.706 5.66738 140.237 5.66738 140.767 5.80327C141.301 5.93584 141.775 6.20597 142.189 6.61364C142.593 7.01136 142.863 7.47869 142.999 8.01562C143.135 8.54924 143.135 9.08617 142.999 9.62642C142.867 10.1667 142.597 10.6406 142.189 11.0483L137.078 16.1591ZM154.128 11.002C154.651 11.0953 155.094 11.3707 155.458 11.828C155.822 12.2853 156.004 12.8033 156.004 13.382C156.004 13.8767 155.873 14.3247 155.612 14.726C155.36 15.118 154.991 15.4307 154.506 15.664C154.021 15.888 153.456 16 152.812 16H148.92V6.27H152.63C153.293 6.27 153.862 6.382 154.338 6.606C154.814 6.83 155.173 7.13333 155.416 7.516C155.659 7.88933 155.78 8.30933 155.78 8.776C155.78 9.336 155.631 9.80267 155.332 10.176C155.033 10.5493 154.632 10.8247 154.128 11.002ZM150.516 10.358H152.49C153.013 10.358 153.419 10.2413 153.708 10.008C154.007 9.76533 154.156 9.42 154.156 8.972C154.156 8.53333 154.007 8.19267 153.708 7.95C153.419 7.698 153.013 7.572 152.49 7.572H150.516V10.358ZM152.672 14.698C153.213 14.698 153.638 14.5673 153.946 14.306C154.254 14.0447 154.408 13.6807 154.408 13.214C154.408 12.738 154.245 12.36 153.918 12.08C153.591 11.8 153.157 11.66 152.616 11.66H150.516V14.698H152.672ZM164.948 6.27L161.728 12.472V16H160.132V12.472L156.898 6.27H158.676L160.93 11.044L163.184 6.27H164.948ZM176.894 9.07C176.642 8.58467 176.292 8.22067 175.844 7.978C175.396 7.726 174.878 7.6 174.29 7.6C173.646 7.6 173.072 7.74467 172.568 8.034C172.064 8.32333 171.667 8.734 171.378 9.266C171.098 9.798 170.958 10.414 170.958 11.114C170.958 11.814 171.098 12.4347 171.378 12.976C171.667 13.508 172.064 13.9187 172.568 14.208C173.072 14.4973 173.646 14.642 174.29 14.642C175.158 14.642 175.862 14.3993 176.404 13.914C176.945 13.4287 177.276 12.7707 177.398 11.94H173.744V10.666H179.106V11.912C179.003 12.668 178.732 13.3633 178.294 13.998C177.864 14.6327 177.3 15.1413 176.6 15.524C175.909 15.8973 175.139 16.084 174.29 16.084C173.375 16.084 172.54 15.874 171.784 15.454C171.028 15.0247 170.426 14.432 169.978 13.676C169.539 12.92 169.32 12.066 169.32 11.114C169.32 10.162 169.539 9.308 169.978 8.552C170.426 7.796 171.028 7.208 171.784 6.788C172.549 6.35867 173.384 6.144 174.29 6.144C175.326 6.144 176.245 6.40067 177.048 6.914C177.86 7.418 178.448 8.13667 178.812 9.07H176.894ZM183.858 6.27C184.894 6.27 185.799 6.47067 186.574 6.872C187.358 7.264 187.96 7.83333 188.38 8.58C188.809 9.31733 189.024 10.1807 189.024 11.17C189.024 12.1593 188.809 13.018 188.38 13.746C187.96 14.474 187.358 15.034 186.574 15.426C185.799 15.8087 184.894 16 183.858 16H180.68V6.27H183.858ZM183.858 14.698C184.997 14.698 185.869 14.39 186.476 13.774C187.083 13.158 187.386 12.29 187.386 11.17C187.386 10.0407 187.083 9.15867 186.476 8.524C185.869 7.88933 184.997 7.572 183.858 7.572H182.276V14.698H183.858ZM193.812 16.098C193.158 16.098 192.57 15.986 192.048 15.762C191.525 15.5287 191.114 15.202 190.816 14.782C190.517 14.362 190.368 13.872 190.368 13.312H192.076C192.113 13.732 192.276 14.0773 192.566 14.348C192.864 14.6187 193.28 14.754 193.812 14.754C194.362 14.754 194.792 14.6233 195.1 14.362C195.408 14.0913 195.562 13.746 195.562 13.326C195.562 12.9993 195.464 12.7333 195.268 12.528C195.081 12.3227 194.843 12.164 194.554 12.052C194.274 11.94 193.882 11.8187 193.378 11.688C192.743 11.52 192.225 11.352 191.824 11.184C191.432 11.0067 191.096 10.736 190.816 10.372C190.536 10.008 190.396 9.52267 190.396 8.916C190.396 8.356 190.536 7.866 190.816 7.446C191.096 7.026 191.488 6.704 191.992 6.48C192.496 6.256 193.079 6.144 193.742 6.144C194.684 6.144 195.454 6.382 196.052 6.858C196.658 7.32467 196.994 7.96867 197.06 8.79H195.296C195.268 8.43533 195.1 8.132 194.792 7.88C194.484 7.628 194.078 7.502 193.574 7.502C193.116 7.502 192.743 7.61867 192.454 7.852C192.164 8.08533 192.02 8.42133 192.02 8.86C192.02 9.15867 192.108 9.406 192.286 9.602C192.472 9.78867 192.706 9.938 192.986 10.05C193.266 10.162 193.648 10.2833 194.134 10.414C194.778 10.5913 195.3 10.7687 195.702 10.946C196.112 11.1233 196.458 11.3987 196.738 11.772C197.027 12.136 197.172 12.626 197.172 13.242C197.172 13.7367 197.036 14.2033 196.766 14.642C196.504 15.0807 196.117 15.4353 195.604 15.706C195.1 15.9673 194.502 16.098 193.812 16.098ZM198.523 11.114C198.523 10.162 198.742 9.308 199.181 8.552C199.629 7.796 200.231 7.208 200.987 6.788C201.752 6.35867 202.588 6.144 203.493 6.144C204.529 6.144 205.448 6.40067 206.251 6.914C207.063 7.418 207.651 8.13667 208.015 9.07H206.097C205.845 8.55667 205.495 8.174 205.047 7.922C204.599 7.67 204.081 7.544 203.493 7.544C202.849 7.544 202.275 7.68867 201.771 7.978C201.267 8.26733 200.87 8.68267 200.581 9.224C200.301 9.76533 200.161 10.3953 200.161 11.114C200.161 11.8327 200.301 12.4627 200.581 13.004C200.87 13.5453 201.267 13.9653 201.771 14.264C202.275 14.5533 202.849 14.698 203.493 14.698C204.081 14.698 204.599 14.572 205.047 14.32C205.495 14.068 205.845 13.6853 206.097 13.172H208.015C207.651 14.1053 207.063 14.824 206.251 15.328C205.448 15.832 204.529 16.084 203.493 16.084C202.578 16.084 201.743 15.874 200.987 15.454C200.231 15.0247 199.629 14.432 199.181 13.676C198.742 12.92 198.523 12.066 198.523 11.114ZM223.768 6.27V16H222.172V9.336L219.204 16H218.098L215.116 9.336V16H213.52V6.27H215.242L218.658 13.9L222.06 6.27H223.768ZM232.669 9.168C232.669 9.66267 232.553 10.1293 232.319 10.568C232.086 11.0067 231.713 11.366 231.199 11.646C230.686 11.9167 230.028 12.052 229.225 12.052H227.461V16H225.865V6.27H229.225C229.972 6.27 230.602 6.40067 231.115 6.662C231.638 6.914 232.025 7.25933 232.277 7.698C232.539 8.13667 232.669 8.62667 232.669 9.168ZM229.225 10.75C229.832 10.75 230.285 10.6147 230.583 10.344C230.882 10.064 231.031 9.672 231.031 9.168C231.031 8.104 230.429 7.572 229.225 7.572H227.461V10.75H229.225ZM237.398 16.098C236.744 16.098 236.156 15.986 235.634 15.762C235.111 15.5287 234.7 15.202 234.402 14.782C234.103 14.362 233.954 13.872 233.954 13.312H235.662C235.699 13.732 235.862 14.0773 236.152 14.348C236.45 14.6187 236.866 14.754 237.398 14.754C237.948 14.754 238.378 14.6233 238.686 14.362C238.994 14.0913 239.148 13.746 239.148 13.326C239.148 12.9993 239.05 12.7333 238.854 12.528C238.667 12.3227 238.429 12.164 238.14 12.052C237.86 11.94 237.468 11.8187 236.964 11.688C236.329 11.52 235.811 11.352 235.41 11.184C235.018 11.0067 234.682 10.736 234.402 10.372C234.122 10.008 233.982 9.52267 233.982 8.916C233.982 8.356 234.122 7.866 234.402 7.446C234.682 7.026 235.074 6.704 235.578 6.48C236.082 6.256 236.665 6.144 237.328 6.144C238.27 6.144 239.04 6.382 239.638 6.858C240.244 7.32467 240.58 7.96867 240.646 8.79H238.882C238.854 8.43533 238.686 8.132 238.378 7.88C238.07 7.628 237.664 7.502 237.16 7.502C236.702 7.502 236.329 7.61867 236.04 7.852C235.75 8.08533 235.606 8.42133 235.606 8.86C235.606 9.15867 235.694 9.406 235.872 9.602C236.058 9.78867 236.292 9.938 236.572 10.05C236.852 10.162 237.234 10.2833 237.72 10.414C238.364 10.5913 238.886 10.7687 239.288 10.946C239.698 11.1233 240.044 11.3987 240.324 11.772C240.613 12.136 240.758 12.626 240.758 13.242C240.758 13.7367 240.622 14.2033 240.352 14.642C240.09 15.0807 239.703 15.4353 239.19 15.706C238.686 15.9673 238.088 16.098 237.398 16.098ZM248.927 6.27V7.572H246.337V16H244.741V7.572H242.137V6.27H248.927ZM260.791 6.27V16H259.195V9.336L256.227 16H255.121L252.139 9.336V16H250.543V6.27H252.265L255.681 13.9L259.083 6.27H260.791ZM264.485 7.558V10.414H267.845V11.716H264.485V14.698H268.265V16H262.889V6.256H268.265V7.558H264.485Z" fill="white"/>
<path d="M51.052 25.384V25.688H48.516V28.032H50.732V28.336H48.516V31H48.156V25.384H51.052ZM53.7596 31.064C53.3542 31.064 52.9889 30.9733 52.6636 30.792C52.3382 30.6107 52.0822 30.352 51.8956 30.016C51.7142 29.6747 51.6236 29.2773 51.6236 28.824C51.6236 28.376 51.7169 27.984 51.9036 27.648C52.0902 27.3067 52.3462 27.048 52.6716 26.872C53.0022 26.6907 53.3702 26.6 53.7756 26.6C54.1809 26.6 54.5462 26.6907 54.8716 26.872C55.1969 27.048 55.4502 27.304 55.6316 27.64C55.8182 27.976 55.9116 28.3707 55.9116 28.824C55.9116 29.2773 55.8182 29.6747 55.6316 30.016C55.4449 30.352 55.1862 30.6107 54.8556 30.792C54.5302 30.9733 54.1649 31.064 53.7596 31.064ZM53.7596 30.744C54.0742 30.744 54.3676 30.6747 54.6396 30.536C54.9169 30.392 55.1382 30.176 55.3036 29.888C55.4689 29.6 55.5516 29.2453 55.5516 28.824C55.5516 28.408 55.4689 28.056 55.3036 27.768C55.1382 27.48 54.9196 27.2667 54.6476 27.128C54.3756 26.984 54.0822 26.912 53.7676 26.912C53.4529 26.912 53.1596 26.984 52.8876 27.128C52.6209 27.2667 52.4049 27.48 52.2396 27.768C52.0742 28.056 51.9916 28.408 51.9916 28.824C51.9916 29.2453 52.0716 29.6 52.2316 29.888C52.3969 30.176 52.6129 30.392 52.8796 30.536C53.1516 30.6747 53.4449 30.744 53.7596 30.744ZM57.2038 25.08V31H56.8438V25.08H57.2038ZM58.7235 25.08V31H58.3635V25.08H58.7235ZM61.7952 31.064C61.3899 31.064 61.0245 30.9733 60.6992 30.792C60.3739 30.6107 60.1179 30.352 59.9312 30.016C59.7499 29.6747 59.6592 29.2773 59.6592 28.824C59.6592 28.376 59.7525 27.984 59.9392 27.648C60.1259 27.3067 60.3819 27.048 60.7072 26.872C61.0379 26.6907 61.4059 26.6 61.8112 26.6C62.2165 26.6 62.5819 26.6907 62.9072 26.872C63.2325 27.048 63.4859 27.304 63.6672 27.64C63.8539 27.976 63.9472 28.3707 63.9472 28.824C63.9472 29.2773 63.8539 29.6747 63.6672 30.016C63.4805 30.352 63.2219 30.6107 62.8912 30.792C62.5659 30.9733 62.2005 31.064 61.7952 31.064ZM61.7952 30.744C62.1099 30.744 62.4032 30.6747 62.6752 30.536C62.9525 30.392 63.1739 30.176 63.3392 29.888C63.5045 29.6 63.5872 29.2453 63.5872 28.824C63.5872 28.408 63.5045 28.056 63.3392 27.768C63.1739 27.48 62.9552 27.2667 62.6832 27.128C62.4112 26.984 62.1179 26.912 61.8032 26.912C61.4885 26.912 61.1952 26.984 60.9232 27.128C60.6565 27.2667 60.4405 27.48 60.2752 27.768C60.1099 28.056 60.0272 28.408 60.0272 28.824C60.0272 29.2453 60.1072 29.6 60.2672 29.888C60.4325 30.176 60.6485 30.392 60.9152 30.536C61.1872 30.6747 61.4805 30.744 61.7952 30.744ZM70.5594 26.656L69.1914 31H68.8474L67.4634 27.152L66.0714 31H65.7274L64.3594 26.656H64.7354L65.9034 30.592L67.2954 26.656H67.6394L69.0234 30.576L70.1914 26.656H70.5594ZM76.958 26.656V31H76.598V30.056C76.4753 30.3867 76.27 30.64 75.982 30.816C75.6993 30.9867 75.374 31.072 75.006 31.072C74.4887 31.072 74.0647 30.9147 73.734 30.6C73.4087 30.28 73.246 29.808 73.246 29.184V26.656H73.598V29.16C73.598 29.6773 73.7287 30.0747 73.99 30.352C74.2513 30.624 74.606 30.76 75.054 30.76C75.5233 30.76 75.8967 30.6107 76.174 30.312C76.4567 30.0133 76.598 29.5707 76.598 28.984V26.656H76.958ZM79.5584 31.064C79.073 31.064 78.6757 30.9573 78.3664 30.744C78.0624 30.5307 77.8917 30.2267 77.8544 29.832H78.2224C78.249 30.1147 78.377 30.3387 78.6064 30.504C78.841 30.6693 79.1584 30.752 79.5584 30.752C79.889 30.752 80.1504 30.6693 80.3424 30.504C80.5397 30.3333 80.6384 30.1253 80.6384 29.88C80.6384 29.7093 80.585 29.5707 80.4784 29.464C80.377 29.352 80.249 29.2667 80.0944 29.208C79.9397 29.1493 79.729 29.0853 79.4624 29.016C79.1424 28.9307 78.8837 28.848 78.6864 28.768C78.489 28.6827 78.321 28.5573 78.1824 28.392C78.0437 28.2267 77.9744 28.0053 77.9744 27.728C77.9744 27.5253 78.0357 27.3387 78.1584 27.168C78.281 26.992 78.4517 26.8533 78.6704 26.752C78.889 26.6507 79.137 26.6 79.4144 26.6C79.8677 26.6 80.233 26.7147 80.5104 26.944C80.793 27.168 80.945 27.48 80.9664 27.88H80.6064C80.5904 27.592 80.4784 27.3573 80.2704 27.176C80.0624 26.9947 79.7744 26.904 79.4064 26.904C79.097 26.904 78.841 26.984 78.6384 27.144C78.4357 27.304 78.3344 27.4987 78.3344 27.728C78.3344 27.9307 78.3904 28.096 78.5024 28.224C78.6197 28.3467 78.761 28.4427 78.9264 28.512C79.097 28.576 79.321 28.6453 79.5984 28.72C79.9024 28.8 80.145 28.88 80.3264 28.96C80.513 29.0347 80.6704 29.1467 80.7984 29.296C80.9264 29.44 80.9904 29.6347 80.9904 29.88C80.9904 30.104 80.929 30.3067 80.8064 30.488C80.6837 30.6693 80.513 30.8107 80.2944 30.912C80.0757 31.0133 79.8304 31.064 79.5584 31.064ZM85.6808 26.976H84.5528V31H84.1928V26.976H83.5368V26.656H84.1928V26.352C84.1928 25.8987 84.3074 25.5627 84.5368 25.344C84.7661 25.12 85.1421 25.008 85.6648 25.008V25.328C85.2488 25.328 84.9581 25.408 84.7928 25.568C84.6328 25.728 84.5528 25.9893 84.5528 26.352V26.656H85.6808V26.976ZM88.3549 31.064C87.9495 31.064 87.5842 30.9733 87.2589 30.792C86.9335 30.6107 86.6775 30.352 86.4909 30.016C86.3095 29.6747 86.2189 29.2773 86.2189 28.824C86.2189 28.376 86.3122 27.984 86.4989 27.648C86.6855 27.3067 86.9415 27.048 87.2669 26.872C87.5975 26.6907 87.9655 26.6 88.3709 26.6C88.7762 26.6 89.1415 26.6907 89.4669 26.872C89.7922 27.048 90.0455 27.304 90.2269 27.64C90.4135 27.976 90.5069 28.3707 90.5069 28.824C90.5069 29.2773 90.4135 29.6747 90.2269 30.016C90.0402 30.352 89.7815 30.6107 89.4509 30.792C89.1255 30.9733 88.7602 31.064 88.3549 31.064ZM88.3549 30.744C88.6695 30.744 88.9629 30.6747 89.2349 30.536C89.5122 30.392 89.7335 30.176 89.8989 29.888C90.0642 29.6 90.1469 29.2453 90.1469 28.824C90.1469 28.408 90.0642 28.056 89.8989 27.768C89.7335 27.48 89.5149 27.2667 89.2429 27.128C88.9709 26.984 88.6775 26.912 88.3629 26.912C88.0482 26.912 87.7549 26.984 87.4829 27.128C87.2162 27.2667 87.0002 27.48 86.8349 27.768C86.6695 28.056 86.5869 28.408 86.5869 28.824C86.5869 29.2453 86.6669 29.6 86.8269 29.888C86.9922 30.176 87.2082 30.392 87.4749 30.536C87.7469 30.6747 88.0402 30.744 88.3549 30.744ZM91.7991 27.552C91.9058 27.232 92.0951 26.9893 92.3671 26.824C92.6391 26.6533 92.9858 26.568 93.4071 26.568V26.944H93.2871C92.8605 26.944 92.5058 27.0667 92.2231 27.312C91.9405 27.552 91.7991 27.9467 91.7991 28.496V31H91.4391V26.656H91.7991V27.552ZM101.31 26.568C101.806 26.568 102.211 26.728 102.526 27.048C102.84 27.3627 102.998 27.832 102.998 28.456V31H102.646V28.48C102.646 27.9627 102.52 27.568 102.27 27.296C102.024 27.0187 101.686 26.88 101.254 26.88C100.806 26.88 100.446 27.0347 100.174 27.344C99.9018 27.6533 99.7658 28.1013 99.7658 28.688V31H99.4138V28.48C99.4138 27.9627 99.2885 27.568 99.0378 27.296C98.7925 27.0187 98.4538 26.88 98.0218 26.88C97.5738 26.88 97.2138 27.0347 96.9418 27.344C96.6698 27.6533 96.5338 28.1013 96.5338 28.688V31H96.1738V26.656H96.5338V27.6C96.6565 27.2587 96.8538 27.0027 97.1258 26.832C97.4031 26.656 97.7205 26.568 98.0778 26.568C98.4725 26.568 98.8111 26.672 99.0938 26.88C99.3818 27.0827 99.5791 27.384 99.6858 27.784C99.7871 27.384 99.9845 27.0827 100.278 26.88C100.571 26.672 100.915 26.568 101.31 26.568ZM106.027 31.064C105.622 31.064 105.257 30.9733 104.931 30.792C104.606 30.6107 104.35 30.352 104.163 30.016C103.982 29.6747 103.891 29.2773 103.891 28.824C103.891 28.376 103.985 27.984 104.171 27.648C104.358 27.3067 104.614 27.048 104.939 26.872C105.27 26.6907 105.638 26.6 106.043 26.6C106.449 26.6 106.814 26.6907 107.139 26.872C107.465 27.048 107.718 27.304 107.899 27.64C108.086 27.976 108.179 28.3707 108.179 28.824C108.179 29.2773 108.086 29.6747 107.899 30.016C107.713 30.352 107.454 30.6107 107.123 30.792C106.798 30.9733 106.433 31.064 106.027 31.064ZM106.027 30.744C106.342 30.744 106.635 30.6747 106.907 30.536C107.185 30.392 107.406 30.176 107.571 29.888C107.737 29.6 107.819 29.2453 107.819 28.824C107.819 28.408 107.737 28.056 107.571 27.768C107.406 27.48 107.187 27.2667 106.915 27.128C106.643 26.984 106.35 26.912 106.035 26.912C105.721 26.912 105.427 26.984 105.155 27.128C104.889 27.2667 104.673 27.48 104.507 27.768C104.342 28.056 104.259 28.408 104.259 28.824C104.259 29.2453 104.339 29.6 104.499 29.888C104.665 30.176 104.881 30.392 105.147 30.536C105.419 30.6747 105.713 30.744 106.027 30.744ZM109.472 27.552C109.578 27.232 109.768 26.9893 110.04 26.824C110.312 26.6533 110.658 26.568 111.08 26.568V26.944H110.96C110.533 26.944 110.178 27.0667 109.896 27.312C109.613 27.552 109.472 27.9467 109.472 28.496V31H109.112V26.656H109.472V27.552ZM115.66 28.536C115.66 28.728 115.655 28.872 115.644 28.968H111.892C111.903 29.3573 111.988 29.6853 112.148 29.952C112.308 30.2187 112.519 30.4187 112.78 30.552C113.042 30.6853 113.327 30.752 113.636 30.752C114.063 30.752 114.42 30.648 114.708 30.44C114.996 30.2267 115.178 29.9387 115.252 29.576H115.628C115.543 30.0187 115.324 30.3787 114.972 30.656C114.62 30.928 114.175 31.064 113.636 31.064C113.231 31.064 112.868 30.9733 112.548 30.792C112.228 30.6107 111.978 30.352 111.796 30.016C111.615 29.6747 111.524 29.2773 111.524 28.824C111.524 28.3707 111.612 27.976 111.788 27.64C111.97 27.304 112.22 27.048 112.54 26.872C112.86 26.6907 113.226 26.6 113.636 26.6C114.052 26.6 114.412 26.6907 114.716 26.872C115.026 27.048 115.26 27.2853 115.42 27.584C115.58 27.8773 115.66 28.1947 115.66 28.536ZM115.3 28.672C115.316 28.288 115.247 27.9627 115.092 27.696C114.943 27.4293 114.738 27.232 114.476 27.104C114.215 26.9707 113.932 26.904 113.628 26.904C113.324 26.904 113.042 26.9707 112.78 27.104C112.524 27.232 112.314 27.4293 112.148 27.696C111.988 27.9627 111.903 28.288 111.892 28.672H115.3ZM122.358 26.656V31H121.998V30.056C121.876 30.3867 121.67 30.64 121.382 30.816C121.1 30.9867 120.774 31.072 120.406 31.072C119.889 31.072 119.465 30.9147 119.134 30.6C118.809 30.28 118.646 29.808 118.646 29.184V26.656H118.998V29.16C118.998 29.6773 119.129 30.0747 119.39 30.352C119.652 30.624 120.006 30.76 120.454 30.76C120.924 30.76 121.297 30.6107 121.574 30.312C121.857 30.0133 121.998 29.5707 121.998 28.984V26.656H122.358ZM123.871 27.8C123.993 27.448 124.215 27.16 124.535 26.936C124.86 26.712 125.252 26.6 125.711 26.6C126.116 26.6 126.476 26.6907 126.791 26.872C127.111 27.0533 127.359 27.312 127.535 27.648C127.716 27.984 127.807 28.376 127.807 28.824C127.807 29.272 127.716 29.6667 127.535 30.008C127.359 30.344 127.111 30.6053 126.791 30.792C126.476 30.9733 126.116 31.064 125.711 31.064C125.257 31.064 124.868 30.952 124.543 30.728C124.223 30.4987 123.999 30.2107 123.871 29.864V33.048H123.511V26.656H123.871V27.8ZM127.439 28.824C127.439 28.4293 127.364 28.088 127.215 27.8C127.065 27.512 126.855 27.2933 126.583 27.144C126.316 26.9893 126.007 26.912 125.655 26.912C125.319 26.912 125.015 26.992 124.743 27.152C124.471 27.3067 124.257 27.5307 124.103 27.824C123.948 28.112 123.871 28.4453 123.871 28.824C123.871 29.208 123.948 29.5467 124.103 29.84C124.257 30.128 124.471 30.352 124.743 30.512C125.015 30.6667 125.319 30.744 125.655 30.744C126.007 30.744 126.316 30.6667 126.583 30.512C126.855 30.3573 127.065 30.136 127.215 29.848C127.364 29.56 127.439 29.2187 127.439 28.824ZM128.509 28.824C128.509 28.376 128.597 27.984 128.773 27.648C128.955 27.312 129.203 27.0533 129.517 26.872C129.837 26.6907 130.2 26.6 130.605 26.6C131.048 26.6 131.432 26.712 131.757 26.936C132.083 27.1547 132.312 27.44 132.445 27.792V25.08H132.805V31H132.445V29.848C132.317 30.2053 132.093 30.4987 131.773 30.728C131.453 30.952 131.064 31.064 130.605 31.064C130.2 31.064 129.837 30.9733 129.517 30.792C129.203 30.6053 128.955 30.344 128.773 30.008C128.597 29.6667 128.509 29.272 128.509 28.824ZM132.445 28.824C132.445 28.4453 132.365 28.112 132.205 27.824C132.051 27.5307 131.837 27.3067 131.565 27.152C131.293 26.992 130.989 26.912 130.653 26.912C130.301 26.912 129.992 26.9893 129.725 27.144C129.459 27.2933 129.251 27.512 129.101 27.8C128.952 28.088 128.877 28.4293 128.877 28.824C128.877 29.2187 128.952 29.56 129.101 29.848C129.251 30.136 129.459 30.3573 129.725 30.512C129.997 30.6667 130.307 30.744 130.653 30.744C130.989 30.744 131.293 30.6667 131.565 30.512C131.843 30.352 132.059 30.128 132.213 29.84C132.368 29.5467 132.445 29.208 132.445 28.824ZM133.732 28.824C133.732 28.376 133.82 27.984 133.996 27.648C134.178 27.312 134.426 27.0533 134.74 26.872C135.06 26.6907 135.423 26.6 135.828 26.6C136.287 26.6 136.676 26.712 136.996 26.936C137.316 27.16 137.54 27.4453 137.668 27.792V26.656H138.028V31H137.668V29.856C137.54 30.208 137.314 30.4987 136.988 30.728C136.668 30.952 136.282 31.064 135.828 31.064C135.423 31.064 135.06 30.9733 134.74 30.792C134.426 30.6053 134.178 30.344 133.996 30.008C133.82 29.6667 133.732 29.272 133.732 28.824ZM137.668 28.824C137.668 28.4453 137.588 28.112 137.428 27.824C137.274 27.5307 137.06 27.3067 136.788 27.152C136.516 26.992 136.212 26.912 135.876 26.912C135.524 26.912 135.215 26.9893 134.948 27.144C134.682 27.2933 134.474 27.512 134.324 27.8C134.175 28.088 134.1 28.4293 134.1 28.824C134.1 29.2187 134.175 29.56 134.324 29.848C134.474 30.136 134.682 30.3573 134.948 30.512C135.22 30.6667 135.53 30.744 135.876 30.744C136.212 30.744 136.516 30.6667 136.788 30.512C137.066 30.352 137.282 30.128 137.436 29.84C137.591 29.5467 137.668 29.208 137.668 28.824ZM139.715 26.968V29.84C139.715 30.16 139.774 30.3813 139.891 30.504C140.008 30.6213 140.216 30.68 140.515 30.68H141.003V31H140.459C140.08 31 139.8 30.912 139.619 30.736C139.443 30.5547 139.355 30.256 139.355 29.84V26.968H138.699V26.656H139.355V25.552H139.715V26.656H141.003V26.968H139.715ZM145.705 28.536C145.705 28.728 145.699 28.872 145.689 28.968H141.937C141.947 29.3573 142.033 29.6853 142.193 29.952C142.353 30.2187 142.563 30.4187 142.825 30.552C143.086 30.6853 143.371 30.752 143.681 30.752C144.107 30.752 144.465 30.648 144.753 30.44C145.041 30.2267 145.222 29.9387 145.297 29.576H145.673C145.587 30.0187 145.369 30.3787 145.017 30.656C144.665 30.928 144.219 31.064 143.681 31.064C143.275 31.064 142.913 30.9733 142.593 30.792C142.273 30.6107 142.022 30.352 141.841 30.016C141.659 29.6747 141.569 29.2773 141.569 28.824C141.569 28.3707 141.657 27.976 141.833 27.64C142.014 27.304 142.265 27.048 142.585 26.872C142.905 26.6907 143.27 26.6 143.681 26.6C144.097 26.6 144.457 26.6907 144.761 26.872C145.07 27.048 145.305 27.2853 145.465 27.584C145.625 27.8773 145.705 28.1947 145.705 28.536ZM145.345 28.672C145.361 28.288 145.291 27.9627 145.137 27.696C144.987 27.4293 144.782 27.232 144.521 27.104C144.259 26.9707 143.977 26.904 143.673 26.904C143.369 26.904 143.086 26.9707 142.825 27.104C142.569 27.232 142.358 27.4293 142.193 27.696C142.033 27.9627 141.947 28.288 141.937 28.672H145.345ZM148.081 31.064C147.595 31.064 147.198 30.9573 146.889 30.744C146.585 30.5307 146.414 30.2267 146.377 29.832H146.745C146.771 30.1147 146.899 30.3387 147.129 30.504C147.363 30.6693 147.681 30.752 148.081 30.752C148.411 30.752 148.673 30.6693 148.865 30.504C149.062 30.3333 149.161 30.1253 149.161 29.88C149.161 29.7093 149.107 29.5707 149.001 29.464C148.899 29.352 148.771 29.2667 148.617 29.208C148.462 29.1493 148.251 29.0853 147.985 29.016C147.665 28.9307 147.406 28.848 147.209 28.768C147.011 28.6827 146.843 28.5573 146.705 28.392C146.566 28.2267 146.497 28.0053 146.497 27.728C146.497 27.5253 146.558 27.3387 146.681 27.168C146.803 26.992 146.974 26.8533 147.193 26.752C147.411 26.6507 147.659 26.6 147.937 26.6C148.39 26.6 148.755 26.7147 149.033 26.944C149.315 27.168 149.467 27.48 149.489 27.88H149.129C149.113 27.592 149.001 27.3573 148.793 27.176C148.585 26.9947 148.297 26.904 147.929 26.904C147.619 26.904 147.363 26.984 147.161 27.144C146.958 27.304 146.857 27.4987 146.857 27.728C146.857 27.9307 146.913 28.096 147.025 28.224C147.142 28.3467 147.283 28.4427 147.449 28.512C147.619 28.576 147.843 28.6453 148.121 28.72C148.425 28.8 148.667 28.88 148.849 28.96C149.035 29.0347 149.193 29.1467 149.321 29.296C149.449 29.44 149.513 29.6347 149.513 29.88C149.513 30.104 149.451 30.3067 149.329 30.488C149.206 30.6693 149.035 30.8107 148.817 30.912C148.598 31.0133 148.353 31.064 148.081 31.064Z" fill="#D9D9D9"/>
<defs>
<clipPath id="clip0_1202_1637">
<rect width="30" height="35" fill="white" transform="translate(0.5)"/>
</clipPath>
</defs>
</svg>
